<?xml version="1.0" encoding="UTF-8" standalone="no"?> <!-- Created with Vectornator for iOS (http://vectornator.io/) --><!DOCTYPE svg PUBLIC "-//W3C//DTD SVG 1.1//EN" "http://www.w3.org/Graphics/SVG/1.1/DTD/svg11.dtd">
<svg style="fill-rule:evenodd;clip-rule:evenodd;stroke-linecap:round;stroke-linejoin:round;" xmlns:vectornator="http://vectornator.io" xmlns:xlink="http://www.w3.org/1999/xlink" xmlns="http://www.w3.org/2000/svg" xml:space="preserve" version="1.1" viewBox="0 0 595.28 841.89">
<metadata>
<vectornator:setting key="DynamicGuides" value="1"/>
<vectornator:setting key="Units" value="Points"/>
<vectornator:setting key="GuidesVisible" value="1"/>
<vectornator:setting key="RulersVisible" value="1"/>
<vectornator:setting key="SnapToGuides" value="1"/>
<vectornator:setting key="GridSpacing" value="36"/>
</metadata>
<defs/>
<g id="Untitled" vectornator:layerName="Untitled">
<path d="M276.77+346C276.77+406.12+276.77+466.23+276.77+526.35C276.77+586.16+276.77+645.97+276.77+705.78C276.77+739.52+276.77+773.26+276.77+807C276.77+814.69+280.12+822.77+285.56+828.21C290.76+833.41+299.3+837.33+306.77+837C314.53+836.65+322.58+834.1+327.98+828.21C333.37+822.34+336.77+815.13+336.77+807C336.77+746.88+336.77+686.77+336.77+626.65C336.77+566.84+336.77+507.03+336.77+447.22C336.77+413.48+336.77+379.74+336.77+346C336.77+338.31+333.42+330.23+327.98+324.79C322.78+319.59+314.24+315.67+306.77+316C299.01+316.35+290.96+318.9+285.56+324.79C280.17+330.66+276.77+337.87+276.77+346L276.77+346Z" opacity="1" fill="#000000"/>
<path d="M306.789+105.461C310.919+105.621+314.769+104.751+318.349+102.881C322.069+101.671+325.289+99.6012+327.999+96.6812C330.929+93.9612+332.989+90.7412+334.199+87.0312C336.079+83.4512+336.939+79.6012+336.779+75.4712C336.419+72.8112+336.069+70.1512+335.709+67.4912C334.279+62.4112+331.709+58.0012+327.989+54.2512C325.969+52.6912+323.939+51.1212+321.919+49.5612C317.239+46.8512+312.189+45.4812+306.779+45.4612C302.649+45.3012+298.799+46.1712+295.219+48.0412C291.499+49.2512+288.279+51.3212+285.569+54.2412C282.639+56.9612+280.579+60.1812+279.369+63.8912C277.489+67.4712+276.629+71.3212+276.789+75.4512C277.149+78.1112+277.499+80.7712+277.859+83.4312C279.289+88.5112+281.859+92.9212+285.579+96.6712C287.599+98.2312+289.629+99.8012+291.649+101.361C296.329+104.081+301.369+105.441+306.789+105.461L306.789+105.461Z" opacity="1" fill="#000000"/>
</g>
</svg>
