<?xml version="1.0" encoding="utf-8"?>
<!-- Generator: Adobe Illustrator 25.3.1, SVG Export Plug-In . SVG Version: 6.00 Build 0)  -->
<svg version="1.1" id="Layer_1" xmlns="http://www.w3.org/2000/svg" xmlns:xlink="http://www.w3.org/1999/xlink" x="0px" y="0px"
	 viewBox="0 0 595.28 841.89" style="enable-background:new 0 0 595.28 841.89;" xml:space="preserve">
<g>
	<g>
		<path d="M418,83.01c-12.29-14.25-31.87-17.82-49.64-18.84c-12.3-0.7-24.64-0.65-36.93,0.11c-26.32,1.63-52.68,5.99-78.03,13.29
			c-51.16,14.74-98.45,40.6-138.95,75.05c-20.38,17.34-38.14,37.14-54.08,58.58c-17.85,24-32.37,50.72-41.38,79.31
			c-9.6,30.47-12.59,63.01-13.76,94.8c-1.06,28.8-0.23,57.71,3.27,86.32c3.74,30.58,9.6,60.77,19.83,89.89
			c9.98,28.4,22.9,56.56,41.05,80.73c9.28,12.37,19.17,24.06,30.92,34.16c11.39,9.78,23.68,18.68,36.87,25.9
			c26.8,14.67,55.71,23.07,85.98,26.35c30.09,3.26,61.42-0.26,90.39-8.79c30.6-9.01,58.9-23.61,83.97-43.23
			c22.06-17.26,39.83-40.2,50.82-65.97c5.85-13.73,10.66-27.57,13.81-42.17c3.16-14.63,5.11-29.57,6.44-44.46
			c2.41-27.03,2.12-54.21,1.99-81.32c-0.15-32.09-0.56-64.17-1.23-96.26c-1.33-63.75-3.67-127.47-7.04-191.14
			c-0.81-15.4-1.69-30.79-2.62-46.18c-18.33,0-36.67,0-55,0c5.51,46.99,11.02,93.99,15.47,141.1c4.45,47.07,7.84,94.27,9.1,141.55
			c1.26,47.15,0.03,94.33,1.32,141.48c0.64,23.52,1.92,47.04,4.46,70.44c2.45,22.53,5.16,45.62,12.82,67.09
			c7.71,21.62,19.35,42.7,37.75,57.02c10.52,8.19,21.1,14.46,33.88,18.69c6.15,2.04,12.45,2.86,18.88,3.66
			c4.35,0.54,8.72,0.63,13.08,0.17c6.4-0.68,12.76-1.52,18.85-3.67c6.83-2.41,12.69-6.24,16.43-12.64
			c3.45-5.89,4.91-14.58,2.77-21.19c-2.15-6.65-6.28-13.07-12.64-16.43c-6.28-3.32-14.25-5.23-21.19-2.77
			c-3.47,1.23-7,2.08-10.64,2.58c2.44-0.33,4.87-0.65,7.31-0.98c-4.82,0.58-9.62,0.51-14.43-0.12c2.44,0.33,4.87,0.65,7.31,0.98
			c-5.48-0.8-10.76-2.3-15.89-4.39c2.19,0.92,4.38,1.85,6.57,2.77c-6.07-2.56-11.72-5.88-16.98-9.84c1.86,1.43,3.71,2.87,5.57,4.3
			c-5.46-4.22-10.35-9.06-14.6-14.51c1.43,1.86,2.87,3.71,4.3,5.57c-5.49-7.23-9.88-15.16-13.43-23.52
			c0.92,2.19,1.85,4.38,2.77,6.57c-6.93-16.72-10.38-34.55-12.78-52.41c0.33,2.44,0.65,4.87,0.98,7.31
			c-8.68-65.71-6.32-132.13-6.99-198.22c-0.68-66.59-5.72-133-12.54-199.22c-3.83-37.16-8.18-74.26-12.53-111.36
			c0.14-3.79-0.65-7.32-2.37-10.6c-1.11-3.41-3-6.36-5.69-8.85c-4.77-4.77-12.6-8.36-19.45-8.05c-7.11,0.32-14.49,2.65-19.45,8.05
			c-4.77,5.19-8.5,12.17-8.05,19.45c3.53,58.24,6.21,116.52,8.04,174.84c1.81,57.9,2.78,115.82,2.9,173.75
			c0.06,27.22-0.17,54.51-3.72,81.54c0.33-2.44,0.65-4.87,0.98-7.31c-2.63,19.53-7.04,38.84-14.63,57.08
			c0.92-2.19,1.85-4.38,2.77-6.57c-5.04,11.93-11.41,23.2-19.26,33.51c1.43-1.86,2.87-3.71,4.3-5.57
			c-8.16,10.55-17.74,19.83-28.28,27.99c1.86-1.43,3.71-2.87,5.57-4.3c-14.22,10.88-29.91,19.67-46.36,26.69
			c2.19-0.92,4.38-1.85,6.57-2.77c-18.51,7.79-37.92,13.18-57.82,15.91c2.44-0.33,4.87-0.65,7.31-0.98
			c-18.31,2.41-36.83,2.53-55.15,0.09c2.44,0.33,4.87,0.65,7.31,0.98c-16.84-2.34-33.29-6.82-48.99-13.36
			c2.19,0.92,4.38,1.85,6.57,2.77c-15.01-6.34-29.16-14.5-42.09-24.43c1.86,1.43,3.71,2.87,5.57,4.3
			c-11.88-9.24-22.45-19.89-31.71-31.75c1.43,1.86,2.87,3.71,4.3,5.57c-13.53-17.53-24.13-37.09-32.78-57.42
			c0.92,2.19,1.85,4.38,2.77,6.57c-12.97-30.77-21.12-63.3-25.62-96.35c0.33,2.44,0.65,4.87,0.98,7.31
			c-3-22.42-4.37-45.02-4.42-67.64c-0.05-23.12,0.95-46.37,4.01-69.3c-0.33,2.44-0.65,4.87-0.98,7.31
			c2.86-20.85,7.75-41.33,15.94-60.76c-0.92,2.19-1.85,4.38-2.77,6.57c9.05-21.16,21.32-40.83,35.34-59.04
			c-1.43,1.86-2.87,3.71-4.3,5.57c16.86-21.75,36.49-41.22,58.22-58.1c-1.86,1.43-3.71,2.87-5.57,4.3
			c23.58-18.21,49.46-33.28,76.91-44.88c-2.19,0.92-4.38,1.85-6.57,2.77c27.46-11.51,56.31-19.48,85.82-23.49
			c-2.44,0.33-4.87,0.65-7.31,0.98c22.2-2.94,45.53-4.41,67.84-1.65c-2.44-0.33-4.87-0.65-7.31-0.98c4.37,0.59,8.62,1.53,12.71,3.21
			c-2.19-0.92-4.38-1.85-6.57-2.77c2.23,1,4.29,2.18,6.22,3.67c-1.86-1.43-3.71-2.87-5.57-4.3c1.18,0.99,2.25,2.03,3.25,3.2
			c4.4,5.1,12.92,8.05,19.45,8.05c6.74,0,14.8-3,19.45-8.05c4.81-5.24,8.38-12.12,8.05-19.45C425.72,94.87,422.98,88.78,418,83.01
			L418,83.01z"/>
	</g>
</g>
</svg>
