<?xml version="1.0" encoding="utf-8"?>
<!-- Generator: Adobe Illustrator 25.3.1, SVG Export Plug-In . SVG Version: 6.00 Build 0)  -->
<svg version="1.1" id="Layer_1" xmlns="http://www.w3.org/2000/svg" xmlns:xlink="http://www.w3.org/1999/xlink" x="0px" y="0px"
	 viewBox="0 0 595.28 841.89" style="enable-background:new 0 0 595.28 841.89;" xml:space="preserve">
<g>
	<g>
		<path d="M110.48,811.22c2.2,3.15,4.55,6.62,7.52,9.19c3.09,2.67,6.42,5.39,10.01,7.42c3.75,2.12,7.89,3.67,11.87,5.23
			c1.96,0.77,3.97,1.41,6,1.96c6.94,1.87,14.13,2.69,21.23,3.6c5.12,0.66,10.27,1.05,15.43,1.28c19.5,0.86,39.1-0.35,58.5-2.36
			c14.26-1.48,28.52-3.49,42.33-7.45c5.79-1.66,11.49-3.63,17.05-5.93c7.59-3.13,15.13-6.32,22.33-10.27
			c11.91-6.54,23.03-14.8,33.13-23.85c9.93-8.9,18.37-19.21,26.18-29.98c6.44-8.88,11.96-18.41,16.6-28.35
			c5.77-12.36,10.8-25.12,14.51-38.25c7.63-27,11.07-55.65,7.92-83.6c-1.81-16.01-4.61-31.77-9.53-47.13
			c-4.89-15.26-11.27-30.22-18.86-44.34c-7.68-14.28-17-27.37-27.04-40.07c-8.57-10.83-18.1-20.9-28.46-30.03
			c-11.2-9.87-23.26-18.85-36.23-26.26c-13.68-7.81-28.27-14.17-43.04-19.62c-12.85-4.74-26.09-8.5-39.56-11.05
			c-15.14-2.87-30.72-4.87-46.16-4.54c-8.37,0.18-16.67,1.24-24.93,2.53c-3.9,0.93-7.3,2.72-10.2,5.37
			c-3.27,2.12-5.84,4.92-7.73,8.42c-2.19,3.44-3.38,7.16-3.56,11.15c-0.89,3.99-0.71,7.98,0.54,11.96
			c2.35,7.26,6.85,14.26,13.79,17.93c2.39,1.01,4.78,2.02,7.17,3.02c5.32,1.43,10.63,1.43,15.95,0c0.84-0.13,1.68-0.25,2.52-0.37
			c-2.66,0.36-5.32,0.71-7.98,1.07c13.62-1.8,27.46-1.28,41.05,0.51c-2.66-0.36-5.32-0.71-7.98-1.07
			c21.31,2.87,42.18,8.88,61.99,17.21c-2.39-1.01-4.78-2.02-7.17-3.02c16.16,6.84,31.78,15.27,45.71,26
			c-2.02-1.56-4.05-3.13-6.07-4.69c14.77,11.47,27.97,25.05,39.42,39.81c-1.56-2.02-3.13-4.05-4.69-6.07
			c12.16,15.75,22.31,32.99,30.06,51.32c-1.01-2.39-2.02-4.78-3.02-7.17c7.15,17.05,12.17,34.94,14.63,53.27
			c-0.36-2.66-0.71-5.32-1.07-7.98c2.14,16.29,2.23,32.8,0.05,49.1c0.36-2.66,0.71-5.32,1.07-7.98
			c-2.57,18.76-7.62,37.32-14.95,54.77c1.01-2.39,2.02-4.78,3.02-7.17c-5.88,13.89-13.34,27.08-22.57,39.02
			c1.56-2.02,3.13-4.05,4.69-6.07c-7.74,9.96-16.66,18.95-26.64,26.68c2.02-1.56,4.05-3.13,6.07-4.69
			c-10.02,7.71-21,14.07-32.64,19.02c2.39-1.01,4.78-2.02,7.17-3.02c-14.22,6-29.23,9.85-44.51,11.93c2.66-0.36,5.32-0.71,7.98-1.07
			c-20.88,2.79-42.24,4.09-63.29,3.46c-6.48-0.19-12.96-0.62-19.4-1.47c2.66,0.36,5.32,0.71,7.98,1.07
			c-6.77-0.91-13.6-2.23-19.93-4.88c2.39,1.01,4.78,2.02,7.17,3.02c-2.36-1.01-4.63-2.22-6.68-3.78c2.02,1.56,4.05,3.13,6.07,4.69
			c-1.2-0.94-2.3-1.99-3.24-3.2c1.56,2.02,3.13,4.05,4.69,6.07c-0.15-0.2-0.3-0.41-0.45-0.62c-1.89-3.5-4.46-6.3-7.73-8.42
			c-2.9-2.65-6.3-4.44-10.2-5.37c-3.99-1.25-7.98-1.43-11.96-0.54c-3.99,0.18-7.71,1.37-11.15,3.56
			c-6.41,4.13-12.04,10.28-13.79,17.93C105.74,795.61,105.9,804.66,110.48,811.22L110.48,811.22z"/>
	</g>
</g>
<g>
	<g>
		<path d="M102.24,31.37c-0.1,70.27-0.2,140.55-0.3,210.82s-0.2,140.55-0.3,210.82c-0.06,39.95-0.16,79.91-0.07,119.86
			c0.1,40.08,0.33,80.16,0.94,120.23c0.49,32.25,0.46,64.77,3.24,96.93c0.17,2.02,0.37,4.04,0.62,6.06
			c1.03,8.25,2.67,15.09,8.79,21.21c5.2,5.2,13.74,9.12,21.21,8.79c7.76-0.35,15.81-2.9,21.21-8.79c4.99-5.44,9.75-13.52,8.79-21.21
			c-1.42-11.35-1.76-22.87-2.2-34.29c-0.7-17.9-1.09-35.81-1.41-53.72c-0.73-40.79-1.01-81.58-1.15-122.37
			c-0.12-35.83-0.06-71.66-0.01-107.48c0.1-70.02,0.2-140.04,0.3-210.05c0.1-70.27,0.2-140.55,0.3-210.82
			c0.01-8.66,0.02-17.31,0.04-25.97c0.02-15.69-13.81-30.72-30-30C115.97,2.1,102.26,14.55,102.24,31.37L102.24,31.37z"/>
	</g>
</g>
</svg>
