<?xml version="1.0" encoding="utf-8"?>
<!-- Generator: Adobe Illustrator 25.3.1, SVG Export Plug-In . SVG Version: 6.00 Build 0)  -->
<svg version="1.1" id="Layer_1" xmlns="http://www.w3.org/2000/svg" xmlns:xlink="http://www.w3.org/1999/xlink" x="0px" y="0px"
	 viewBox="0 0 595.28 841.89" style="enable-background:new 0 0 595.28 841.89;" xml:space="preserve">
<g>
	<g>
		<path d="M573.14,45.79C522.41,19.88,466.36,5.88,409.37,5.04c-57.01-0.84-113.18,11.86-165,35.3
			c-48.88,22.12-92.91,55.79-127.93,96.37C79.49,179.5,51.6,228.53,32.1,281.53C13.09,333.22,3.21,388.88,3,443.95
			C2.79,500.57,13.12,557.93,33.98,610.6c21.4,54.03,52.19,104.41,94.25,144.9c17.34,16.69,36.85,31.27,58.11,42.6
			c21.58,11.5,44.75,20.5,68.32,26.99c47.23,13,97.5,17.23,146.31,13.82c50.12-3.5,98.95-14.34,144.94-34.67
			c9.32-4.12,18.42-8.72,27.23-13.84c6.51-3.78,11.79-10.68,13.79-17.93c1.98-7.18,1.08-16.74-3.02-23.12
			c-8.82-13.69-26.52-19.2-41.05-10.76c-10.32,6-21.04,11.26-32.03,15.92c2.39-1.01,4.78-2.02,7.17-3.02
			c-30.88,12.98-63.63,21.13-96.78,25.63c2.66-0.36,5.32-0.71,7.98-1.07c-38.6,5.15-77.87,5.34-116.48,0.22
			c2.66,0.36,5.32,0.71,7.98,1.07c-30.52-4.12-60.64-11.6-89.08-23.54c2.39,1.01,4.78,2.02,7.17,3.02
			c-19.38-8.21-37.87-18.5-54.59-31.34c2.02,1.56,4.05,3.13,6.07,4.69c-19.93-15.44-37.36-34.28-52.76-54.16
			c1.56,2.02,3.13,4.05,4.69,6.07c-20.25-26.3-36.81-55.25-49.77-85.78c1.01,2.39,2.02,4.78,3.02,7.17
			c-14.77-35.06-24.76-72.02-29.82-109.73c0.36,2.66,0.71,5.32,1.07,7.98c-5.03-38.18-4.81-76.87,0.26-115.03
			c-0.36,2.66-0.71,5.32-1.07,7.98c5.44-40.24,16.18-79.67,31.94-117.09c-1.01,2.39-2.02,4.78-3.02,7.17
			c14.3-33.73,32.63-65.7,54.96-94.76c-1.56,2.02-3.13,4.05-4.69,6.07c19.22-24.87,41.3-47.44,66.12-66.74
			c-2.02,1.56-4.05,3.13-6.07,4.69c23.75-18.34,49.78-33.55,77.4-45.29c-2.39,1.01-4.78,2.02-7.17,3.02
			c28.85-12.15,59.19-20.45,90.21-24.67c-2.66,0.36-5.32,0.71-7.98,1.07c30.84-4.1,62.11-4.15,92.95-0.02
			c-2.66-0.36-5.32-0.71-7.98-1.07c29.22,4,57.82,11.73,85.02,23.12c-2.39-1.01-4.78-2.02-7.17-3.02
			c7.61,3.21,15.09,6.7,22.44,10.46c7.18,3.67,15.17,5.21,23.12,3.02c6.96-1.92,14.5-7.3,17.93-13.79
			c3.68-6.96,5.52-15.4,3.02-23.12C584.6,56.52,580.09,49.34,573.14,45.79L573.14,45.79z"/>
	</g>
</g>
</svg>
