<?xml version="1.0" encoding="utf-8"?>
<!-- Generator: Adobe Illustrator 25.3.1, SVG Export Plug-In . SVG Version: 6.00 Build 0)  -->
<svg version="1.1" id="Layer_1" xmlns="http://www.w3.org/2000/svg" xmlns:xlink="http://www.w3.org/1999/xlink" x="0px" y="0px"
	 viewBox="0 0 595.28 841.89" style="enable-background:new 0 0 595.28 841.89;" xml:space="preserve">
<g>
	<g>
		<path d="M383.47,428.1c-36.17-20.43-80.56-18.93-120.03-11c-41.51,8.34-81.3,26.28-114.68,52.27
			c-14.25,11.1-27.11,24.72-36.09,40.48c-13.4,23.52-23.28,49.82-28.26,76.45c-10.17,54.44-3.63,113.02,26.61,160.41
			c27.27,42.74,70.88,76.16,120.5,88.12c26.72,6.44,55.64,7.34,82.3,0.01c28.87-7.94,54.42-26.93,67.66-54.15
			c12.03-24.75,15.78-51.53,17.67-78.75c2.02-29.08,3.45-58.21,5.16-87.31c3.52-60.02,7.04-120.03,10.56-180.05
			c3.52-60.02,7.04-120.03,10.56-180.05c3.5-59.76,7.01-119.52,10.51-179.28c0.86-14.75,1.73-29.49,2.59-44.24
			c0.92-15.69-14.46-30.7-30-30c-7.76,0.35-15.81,2.9-21.21,8.79c-1.56,2.02-3.13,4.05-4.69,6.07c-2.71,4.68-4.08,9.73-4.1,15.14
			c-6.23,60.01-11.64,120.11-16.21,180.27c-4.57,60.16-8.3,120.38-11.2,180.64c-2.9,60.26-4.96,120.56-6.18,180.87
			c-0.58,28.41-1.54,56.92-0.34,85.32c1.25,29.39,4.82,59.57,15.12,87.29c8.3,22.33,18.31,44.59,33.9,62.83
			c6.33,7.41,14.43,13.95,23.06,18.48c12.26,6.43,24.34,9.23,37.94,10.85c5.09,0.61,10.19,0.83,15.31,0.79
			c15.69-0.1,30.73-13.72,30-30c-0.72-16.16-13.18-30.11-30-30c-5.29,0.04-10.55-0.2-15.79-0.85c2.66,0.36,5.32,0.71,7.98,1.07
			c-6.16-0.84-12.18-2.28-17.95-4.64c2.39,1.01,4.78,2.02,7.17,3.02c-4.38-1.87-8.47-4.24-12.27-7.12c2.02,1.56,4.05,3.13,6.07,4.69
			c-4.41-3.45-8.24-7.48-11.66-11.9c1.56,2.02,3.13,4.05,4.69,6.07c-8.96-11.83-15-25.62-20.76-39.2c1.01,2.39,2.02,4.78,3.02,7.17
			c-7.24-17.33-11.62-35.57-14.17-54.15c0.36,2.66,0.71,5.32,1.07,7.98c-5.38-40.67-3.15-82.22-2.29-123.11
			c0.92-43.56,2.27-87.11,4.07-130.64c3.56-86.55,8.85-173.04,15.87-259.38c3.96-48.83,8.49-97.61,13.55-146.34c-20,0-40,0-60,0
			c-5.37,91.58-10.74,183.16-16.11,274.74c-5.37,91.58-10.74,183.16-16.11,274.74c-1.49,25.35-2.97,50.7-4.46,76.06
			c-1.32,22.57-1.89,45.35-4.9,67.78c0.36-2.66,0.71-5.32,1.07-7.98c-1.77,12.69-4.51,25.25-9.5,37.1c1.01-2.39,2.02-4.78,3.02-7.17
			c-2.86,6.59-6.38,12.78-10.77,18.48c1.56-2.02,3.13-4.05,4.69-6.07c-3.69,4.64-7.83,8.76-12.5,12.4c2.02-1.56,4.05-3.13,6.07-4.69
			c-5.07,3.81-10.52,6.9-16.33,9.44c2.39-1.01,4.78-2.02,7.17-3.02c-8.68,3.64-17.77,5.91-27.09,7.19c2.66-0.36,5.32-0.71,7.98-1.07
			c-12.2,1.53-24.5,1.38-36.68-0.26c2.66,0.36,5.32,0.71,7.98,1.07c-13.24-1.88-26.1-5.49-38.45-10.6c2.39,1.01,4.78,2.02,7.17,3.02
			c-13.78-5.83-26.68-13.44-38.53-22.56c2.02,1.56,4.05,3.13,6.07,4.69c-11.82-9.23-22.43-19.85-31.61-31.71
			c1.56,2.02,3.13,4.05,4.69,6.07c-8.69-11.38-15.92-23.72-21.52-36.91c1.01,2.39,2.02,4.78,3.02,7.17
			c-6.28-15.09-10.45-30.89-12.64-47.08c0.36,2.66,0.71,5.32,1.07,7.98c-2.31-17.95-2.17-36.06,0.16-54
			c-0.36,2.66-0.71,5.32-1.07,7.98c2.68-19.78,7.97-39.06,15.65-57.48c-1.01,2.39-2.02,4.78-3.02,7.17
			c5.05-11.91,10.74-23.84,18.65-34.13c-1.56,2.02-3.13,4.05-4.69,6.07c6.96-8.91,15.25-16.66,24.16-23.59
			c-2.02,1.56-4.05,3.13-6.07,4.69c15.22-11.71,32.16-21.01,49.8-28.53c-2.39,1.01-4.78,2.02-7.17,3.02
			c21.44-9.05,44.01-15.49,67.09-18.61c-2.66,0.36-5.32,0.71-7.98,1.07c15.45-2.02,31.14-2.55,46.62-0.5
			c-2.66-0.36-5.32-0.71-7.98-1.07c9.15,1.27,18.14,3.46,26.67,7.03c-2.39-1.01-4.78-2.02-7.17-3.02c2.8,1.2,5.52,2.54,8.17,4.04
			c13.67,7.72,33.4,3.7,41.05-10.76C401.73,454.94,398.06,436.35,383.47,428.1L383.47,428.1z"/>
	</g>
</g>
</svg>
