<?xml version="1.0" encoding="utf-8"?>
<!-- Generator: Adobe Illustrator 25.3.1, SVG Export Plug-In . SVG Version: 6.00 Build 0)  -->
<svg version="1.1" id="Layer_1" xmlns="http://www.w3.org/2000/svg" xmlns:xlink="http://www.w3.org/1999/xlink" x="0px" y="0px"
	 viewBox="0 0 595.28 841.89" style="enable-background:new 0 0 595.28 841.89;" xml:space="preserve">
<g>
	<g>
		<path d="M57.44,502.34c31.24,2.52,62.64,3.15,93.98,2.65c36.72-0.58,73.43-2.78,109.94-6.82c39.09-4.33,78.14-10.28,116.33-19.76
			c33.94-8.42,67.71-19.72,98.68-36.14c32.96-17.47,60.92-42.83,81.77-73.73c21.01-31.15,33-68.37,34.77-105.85
			c1.7-35.95-7.62-73.46-27.16-103.81c-10.3-16.01-23.03-30.63-38.02-42.4c-7.87-6.18-15.92-12.68-24.95-17.11
			c-8.47-4.16-17.4-7.58-26.46-10.21c-20.56-5.97-42.06-8.86-63.29-11.19c-21.89-2.4-43.93-3.49-65.94-3.52
			c-23.78-0.04-47.36,1.38-70.81,5.58c-22,3.93-42.82,11.03-63.32,19.82c-39.16,16.8-74.2,43.48-103.51,74.2
			c-34.63,36.31-59.44,79.62-76.96,126.43c-13.45,35.94-21.76,73.18-26.37,111.23C2,445.8,1.9,480.39,6.17,514.47
			c4.42,35.32,12.12,69.86,25.46,102.94c6.89,17.09,14.53,33.83,23.69,49.83c9.1,15.88,19.63,30.69,30.9,45.09
			c21.3,27.22,47.16,50.55,75.73,69.94c29.82,20.24,63.53,35.35,98.16,45.22c38.38,10.94,78.41,14.88,118.18,11.75
			c42.7-3.36,84.85-12.56,123.67-30.97c15.75-7.47,30.67-17.2,43.36-29.2c11.43-10.81,11.71-31.67,0-42.43
			c-12.25-11.24-30.24-11.53-42.43,0c-2.61,2.47-5.34,4.79-8.17,7c2.02-1.56,4.05-3.13,6.07-4.69
			c-11.44,8.82-24.27,15.63-37.53,21.27c2.39-1.01,4.78-2.02,7.17-3.02c-25.41,10.69-52.48,17.21-79.74,20.93
			c2.66-0.36,5.32-0.71,7.98-1.07c-28.74,3.84-58.05,4.6-86.84,0.83c2.66,0.36,5.32,0.71,7.98,1.07
			c-27.76-3.74-55.16-11.57-80.98-22.4c2.39,1.01,4.78,2.02,7.17,3.02c-24.52-10.36-47.65-23.76-68.75-39.99
			c2.02,1.56,4.05,3.13,6.07,4.69c-20.86-16.14-39.54-34.9-55.71-55.73c1.56,2.02,3.13,4.05,4.69,6.07
			c-17.7-22.93-32.23-48.14-43.54-74.79c1.01,2.39,2.02,4.78,3.02,7.17c-13.01-30.85-21.65-63.4-26.17-96.56
			c0.36,2.66,0.71,5.32,1.07,7.98c-5-37.23-4.8-75.01,0.15-112.23c-0.36,2.66-0.71,5.32-1.07,7.98
			C71,375.39,81.27,337.2,96.44,301.11c-1.01,2.39-2.02,4.78-3.02,7.17c11.21-26.44,25.37-51.57,42.89-74.35
			c-1.56,2.02-3.13,4.05-4.69,6.07c16.62-21.42,36.17-40.7,57.57-57.34c-2.02,1.56-4.05,3.13-6.07,4.69
			c18.94-14.62,39.54-26.96,61.58-36.3c-2.39,1.01-4.78,2.02-7.17,3.02c21.29-8.93,43.64-14.93,66.51-18.02
			c-2.66,0.36-5.32,0.71-7.98,1.07c21.2-2.77,42.71-2.98,64.05-2.52c21.54,0.46,43.08,1.94,64.45,4.77
			c-2.66-0.36-5.32-0.71-7.98-1.07c19.7,2.66,39.88,6.12,58.34,13.76c-2.39-1.01-4.78-2.02-7.17-3.02c8.33,3.52,15.74,8.51,22.89,14
			c-2.02-1.56-4.05-3.13-6.07-4.69c10.14,7.87,19.27,16.91,27.13,27.06c-1.56-2.02-3.13-4.05-4.69-6.07
			c7.41,9.69,13.57,20.24,18.36,31.46c-1.01-2.39-2.02-4.78-3.02-7.17c5.19,12.34,8.66,25.3,10.45,38.56
			c-0.36-2.66-0.71-5.32-1.07-7.98c1.84,14.22,1.75,28.59-0.12,42.81c0.36-2.66,0.71-5.32,1.07-7.98
			c-2.11,15.41-6.27,30.45-12.27,44.8c1.01-2.39,2.02-4.78,3.02-7.17c-6.28,14.82-14.45,28.73-24.26,41.48
			c1.56-2.02,3.13-4.05,4.69-6.07c-9.94,12.78-21.44,24.23-34.23,34.17c2.02-1.56,4.05-3.13,6.07-4.69
			c-16.16,12.44-34.26,22-53,29.93c2.39-1.01,4.78-2.02,7.17-3.02c-37.25,15.66-76.92,25.28-116.63,32.27
			c-12.01,2.12-24.06,3.96-36.15,5.59c2.66-0.36,5.32-0.71,7.98-1.07c-61.25,8.21-123.37,11.27-185.14,9.37
			c-14.18-0.43-28.35-1.17-42.5-2.3c-7.3-0.59-16.19,3.77-21.21,8.79c-5.2,5.2-9.12,13.74-8.79,21.21
			c0.35,7.76,2.9,15.81,8.79,21.21C42.36,499.18,49.13,501.67,57.44,502.34L57.44,502.34z"/>
	</g>
</g>
</svg>
