<?xml version="1.0" encoding="utf-8"?>
<!-- Generator: Adobe Illustrator 25.3.1, SVG Export Plug-In . SVG Version: 6.00 Build 0)  -->
<svg version="1.1" id="Layer_1" xmlns="http://www.w3.org/2000/svg" xmlns:xlink="http://www.w3.org/1999/xlink" x="0px" y="0px"
	 viewBox="0 0 595.28 841.89" style="enable-background:new 0 0 595.28 841.89;" xml:space="preserve">
<g>
	<g>
		<path d="M423,51c0.96-11.88-4.9-25.26-13.99-32.87C400.5,11,390.57,6.25,379.63,4.16c-17.56-3.35-35.44-3.54-53.18-1.8
			c-19.19,1.89-37.08,6.35-55.18,12.9c-19.54,7.08-39.3,14.99-57.41,25.26c-37.13,21.05-68.96,52.22-87.36,91.02
			c-18.11,38.18-25.93,79.67-31.15,121.32c-2.45,19.53-3.71,39.29-2.7,58.97c1.06,20.85,4.01,42.32,11.41,61.96
			c7.84,20.79,19.02,40.33,35.64,55.42c16.83,15.28,37.53,26.67,59.69,31.96c42.47,10.15,87.06,0.24,124.48-21.19
			c18.36-10.51,35.53-24.05,50.02-39.46c14.43-15.35,27.26-32.93,36.21-52.06c19.89-42.49,26.23-89.61,26.92-136.17
			c0.69-46.76-4.59-93.32-10.85-139.59c-1.34-9.91-2.76-19.81-4.21-29.7c-0.97-6.63-8.06-14.9-13.79-17.93
			c-6.06-3.2-12.31-4.48-19.13-3.56c-6.29,0.85-12.8,3.43-17.23,8.25c-5.02,5.47-9.69,13.49-8.79,21.21
			c9.19,78.29,15.22,156.95,18.49,235.7c3.33,80.2,3.82,160.55,0.68,240.76c-1.7,43.41-3.51,87.24-9.29,130.33
			c0.36-2.66,0.71-5.32,1.07-7.98c-3.26,23.79-8.4,47.35-17.68,69.56c1.01-2.39,2.02-4.78,3.02-7.17
			c-5.6,13.14-12.63,25.52-21.3,36.88c1.56-2.02,3.13-4.05,4.69-6.07c-7.45,9.61-15.91,18.34-25.51,25.81
			c2.02-1.56,4.05-3.13,6.07-4.69c-7.29,5.56-15.12,10.29-23.55,13.93c2.39-1.01,4.78-2.02,7.17-3.02
			c-7.31,3.05-14.89,5.19-22.74,6.26c2.66-0.36,5.32-0.71,7.98-1.07c-11.86,1.45-24.12,0.56-35.93-0.99
			c2.66,0.36,5.32,0.71,7.98,1.07c-13.09-1.81-25.91-5.07-38.13-10.12c2.39,1.01,4.78,2.02,7.17,3.02
			c-10.32-4.36-20.03-9.94-28.91-16.78c2.02,1.56,4.05,3.13,6.07,4.69c-8.01-6.26-15.2-13.45-21.46-21.46
			c1.56,2.02,3.13,4.05,4.69,6.07c-6.66-8.63-12.17-18.06-16.44-28.09c1.01,2.39,2.02,4.78,3.02,7.17
			c-3.87-9.24-6.68-18.88-8.21-28.79c-1.08-6.94-8-14.54-13.79-17.93c-6.43-3.76-15.91-5.36-23.12-3.02
			c-7.26,2.35-14.26,6.85-17.93,13.79c-1.01,2.39-2.02,4.78-3.02,7.17c-1.43,5.32-1.43,10.63,0,15.95
			c3.35,21.56,12.45,43.18,25.26,60.81c8.14,11.21,17,21.6,27.89,30.22c6.5,5.15,13.08,10.15,20.25,14.34
			c7.64,4.46,15.77,7.97,23.97,11.26c15.85,6.36,32.46,9.37,49.39,11.2c17.99,1.94,36.69,1.58,54.07-3.96
			c36.6-11.68,66.06-39.5,85.49-72.05c21.23-35.58,29.26-76.46,33.87-117.08c4.18-36.79,6.01-73.95,7.58-110.93
			c3.25-76.75,3.13-153.65,0.38-230.42c-2.72-76.01-8.02-151.95-16.19-227.57C425.06,68.86,424.05,59.93,423,51
			c-19.64,2.66-39.29,5.32-58.93,7.98c1.53,10.47,3.03,20.95,4.44,31.44c-0.36-2.66-0.71-5.32-1.07-7.98
			c6.23,46.5,10.94,93.51,9.28,140.48c-0.47,13.26-1.49,26.49-3.22,39.65c0.36-2.66,0.71-5.32,1.07-7.98
			c-2.96,22.02-7.95,43.83-16.51,64.38c1.01-2.39,2.02-4.78,3.02-7.17c-5.78,13.66-13.29,26.42-22.29,38.2
			c1.56-2.02,3.13-4.05,4.69-6.07c-10,12.93-21.6,24.51-34.5,34.55c2.02-1.56,4.05-3.13,6.07-4.69
			c-12.51,9.62-26.11,17.71-40.64,23.87c2.39-1.01,4.78-2.02,7.17-3.02c-12.22,5.09-24.95,8.75-38.07,10.59
			c2.66-0.36,5.32-0.71,7.98-1.07c-11.14,1.47-22.37,1.59-33.51,0.1c2.66,0.36,5.32,0.71,7.98,1.07
			c-9.52-1.36-18.78-3.88-27.65-7.58c2.39,1.01,4.78,2.02,7.17,3.02c-8.25-3.54-16.03-8.01-23.18-13.44
			c2.02,1.56,4.05,3.13,6.07,4.69c-6.64-5.15-12.57-11.04-17.77-17.64c1.56,2.02,3.13,4.05,4.69,6.07
			c-5.85-7.59-10.59-15.88-14.38-24.67c1.01,2.39,2.02,4.78,3.02,7.17c-5.45-12.94-8.77-26.6-10.68-40.49
			c0.36,2.66,0.71,5.32,1.07,7.98c-3.58-27-2.08-54.43,1.49-81.36c-0.36,2.66-0.71,5.32-1.07,7.98
			c4.31-31.94,10.45-64.41,22.93-94.27c-1.01,2.39-2.02,4.78-3.02,7.17c6.09-14.37,13.77-27.95,23.31-40.31
			c-1.56,2.02-3.13,4.05-4.69,6.07c9.24-11.84,20-22.3,31.87-31.49c-2.02,1.56-4.05,3.13-6.07,4.69
			c16.8-12.84,35.22-22.51,54.64-30.72c-2.39,1.01-4.78,2.02-7.17,3.02c19.23-8.07,39.62-16.24,60.41-19.07
			c-2.66,0.36-5.32,0.71-7.98,1.07c15.73-2.08,31.98-2.94,47.77-0.92c-2.66-0.36-5.32-0.71-7.98-1.07c5.33,0.73,10.62,1.81,15.6,3.9
			c-2.39-1.01-4.78-2.02-7.17-3.02c1.93,0.86,3.75,1.86,5.44,3.13c-2.02-1.56-4.05-3.13-6.07-4.69c1.03,0.83,1.95,1.72,2.78,2.76
			c-1.56-2.02-3.13-4.05-4.69-6.07c0.64,0.87,1.17,1.78,1.61,2.77c-1.01-2.39-2.02-4.78-3.02-7.17c0.4,1.04,0.66,2.07,0.81,3.17
			c-0.36-2.66-0.71-5.32-1.07-7.98c0.09,1,0.09,1.96,0.01,2.96c-0.59,7.3,3.77,16.19,8.79,21.21c5.2,5.2,13.74,9.12,21.21,8.79
			c7.76-0.35,15.81-2.9,21.21-8.79C419.84,66.08,422.33,59.31,423,51L423,51z"/>
	</g>
</g>
</svg>
