<?xml version="1.0" encoding="utf-8"?>
<!-- Generator: Adobe Illustrator 25.3.1, SVG Export Plug-In . SVG Version: 6.00 Build 0)  -->
<svg version="1.1" id="Layer_1" xmlns="http://www.w3.org/2000/svg" xmlns:xlink="http://www.w3.org/1999/xlink" x="0px" y="0px"
	 viewBox="0 0 595.28 841.89" style="enable-background:new 0 0 595.28 841.89;" xml:space="preserve">
<g>
	<g>
		<path d="M166,32c1.23,49.92,1.99,99.85,2.5,149.78c0.52,51.04,0.77,102.08,0.95,153.12c0.18,51.08,0.3,102.16,0.54,153.24
			c0.24,50.79,0.59,101.58,1.27,152.37c0.67,49.93,1.64,99.86,3.15,149.77c0.19,6.24,0.39,12.48,0.59,18.72
			c0.26,7.85,3.17,15.6,8.79,21.21c5.2,5.2,13.74,9.12,21.21,8.79c7.76-0.35,15.81-2.9,21.21-8.79c5.67-6.18,7.97-12.88,8.79-21.21
			c8.58-87.62,17-175.26,25.53-262.88c2.16-22.2,3.85-44.52,6.77-66.64c-0.36,2.66-0.71,5.32-1.07,7.98
			c2.53-18.75,6.34-37.49,13.6-55.04c-1.01,2.39-2.02,4.78-3.02,7.17c3.48-8.22,7.72-16.06,13.12-23.18
			c-1.56,2.02-3.13,4.05-4.69,6.07c3.91-5.03,8.33-9.56,13.37-13.47c-2.02,1.56-4.05,3.13-6.07,4.69c4.4-3.31,9.13-6.04,14.2-8.19
			c-2.39,1.01-4.78,2.02-7.17,3.02c6.94-2.82,14.23-4.44,21.64-5.48c-2.66,0.36-5.32,0.71-7.98,1.07
			c14.07-1.87,28.38-1.69,42.44,0.12c-2.66-0.36-5.32-0.71-7.98-1.07c11.01,1.49,21.89,3.99,32.17,8.26
			c-2.39-1.01-4.78-2.02-7.17-3.02c5.3,2.26,10.36,4.99,14.95,8.48c-2.02-1.56-4.05-3.13-6.07-4.69c2.98,2.34,5.6,4.95,7.93,7.95
			c-1.56-2.02-3.13-4.05-4.69-6.07c5.02,6.64,8.98,13.89,12.24,21.54c-1.01-2.39-2.02-4.78-3.02-7.17
			c8.04,19.36,11.52,40.15,15.44,60.63c4.44,23.15,9.44,46.14,13.3,69.4c2.31,13.9,4.38,27.84,6.26,41.8
			c-0.36-2.66-0.71-5.32-1.07-7.98c7.49,56.14,11.69,112.7,12.82,169.32c0.32,15.79,0.38,31.59,0.21,47.38
			c-0.17,15.7,13.92,30.72,30,30c16.4-0.73,29.82-13.18,30-30c0.84-79.06-4.56-158-15.7-236.26c-5.17-36.3-12.71-72.04-19.56-108.03
			c-3.03-15.92-6.16-31.95-11.85-47.18c-3.46-9.25-7.34-18.57-12.58-26.98c-4.44-7.13-9.53-14.39-16.05-19.78
			c-24.93-20.62-58.14-27.62-89.89-27.95c-31.52-0.33-63.47,6.94-86.3,30.04c-22.08,22.33-32.97,53.69-38.42,83.99
			c-6.19,34.42-8.22,69.72-11.6,104.5c-7.18,73.89-14.3,147.78-21.51,221.67c-0.85,8.66-1.69,17.32-2.54,25.98c20,0,40,0,60,0
			c-1.64-49.76-2.72-99.53-3.47-149.31c-0.77-50.96-1.18-101.92-1.45-152.88c-0.27-51.08-0.4-102.15-0.56-153.23
			c-0.17-50.86-0.38-101.72-0.83-152.58c-0.44-50.07-1.12-100.14-2.24-150.2C226.3,44.53,226.15,38.26,226,32
			c-0.19-7.81-3.21-15.64-8.79-21.21C212.01,5.58,203.47,1.67,196,2C180.08,2.71,165.59,15.19,166,32L166,32z"/>
	</g>
</g>
</svg>
