<?xml version="1.0" encoding="utf-8"?>
<!-- Generator: Adobe Illustrator 25.3.1, SVG Export Plug-In . SVG Version: 6.00 Build 0)  -->
<svg version="1.1" id="Layer_1" xmlns="http://www.w3.org/2000/svg" xmlns:xlink="http://www.w3.org/1999/xlink" x="0px" y="0px"
	 viewBox="0 0 595.28 841.89" style="enable-background:new 0 0 595.28 841.89;" xml:space="preserve">
<g>
	<g>
		<path d="M276.77,346c0,60.12,0,120.23,0,180.35c0,59.81,0,119.62,0,179.43c0,33.74,0,67.48,0,101.22c0,7.69,3.35,15.77,8.79,21.21
			c5.2,5.2,13.74,9.12,21.21,8.79c7.76-0.35,15.81-2.9,21.21-8.79c5.39-5.87,8.79-13.08,8.79-21.21c0-60.12,0-120.23,0-180.35
			c0-59.81,0-119.62,0-179.43c0-33.74,0-67.48,0-101.22c0-7.69-3.35-15.77-8.79-21.21c-5.2-5.2-13.74-9.12-21.21-8.79
			c-7.76,0.35-15.81,2.9-21.21,8.79C280.17,330.66,276.77,337.87,276.77,346L276.77,346z"/>
	</g>
</g>
<g>
	<g>
		<path d="M306.77,64c4.13,0.16,7.98-0.71,11.56-2.58c3.72-1.21,6.94-3.28,9.65-6.2c2.93-2.72,4.99-5.94,6.2-9.65
			c1.88-3.58,2.74-7.43,2.58-11.56c-0.36-2.66-0.71-5.32-1.07-7.98c-1.43-5.08-4-9.49-7.72-13.24c-2.02-1.56-4.05-3.13-6.07-4.69
			c-4.68-2.71-9.73-4.08-15.14-4.1c-4.13-0.16-7.98,0.71-11.56,2.58c-3.72,1.21-6.94,3.28-9.65,6.2c-2.93,2.72-4.99,5.94-6.2,9.65
			c-1.88,3.58-2.74,7.43-2.58,11.56c0.36,2.66,0.71,5.32,1.07,7.98c1.43,5.08,4,9.49,7.72,13.24c2.02,1.56,4.05,3.13,6.07,4.69
			C296.31,62.62,301.35,63.98,306.77,64L306.77,64z"/>
	</g>
</g>
</svg>
