<?xml version="1.0" encoding="utf-8"?>
<!-- Generator: Adobe Illustrator 25.3.1, SVG Export Plug-In . SVG Version: 6.00 Build 0)  -->
<svg version="1.1" id="Layer_1" xmlns="http://www.w3.org/2000/svg" xmlns:xlink="http://www.w3.org/1999/xlink" x="0px" y="0px"
	 viewBox="0 0 595.28 841.89" style="enable-background:new 0 0 595.28 841.89;" xml:space="preserve">
<g>
	<g>
		<path d="M373.63,283.49c1.36,53.7,1.99,107.42,2.12,161.14c0.12,49.33,0.07,98.68-0.28,148.01c-0.17,23.71-0.85,47.48-3.99,71
			c0.36-2.66,0.71-5.32,1.07-7.98c-2.64,19.43-7.01,38.68-14.6,56.8c1.01-2.39,2.02-4.78,3.02-7.17
			c-4.91,11.58-11.11,22.54-18.75,32.54c1.56-2.02,3.13-4.05,4.69-6.07c-7.15,9.24-15.43,17.52-24.67,24.68
			c2.02-1.56,4.05-3.13,6.07-4.69c-9.97,7.65-20.91,13.91-32.47,18.82c2.39-1.01,4.78-2.02,7.17-3.02
			c-13.66,5.74-28.05,9.56-42.72,11.55c2.66-0.36,5.32-0.71,7.98-1.07c-15.01,1.98-30.22,2.03-45.23,0.04
			c2.66,0.36,5.32,0.71,7.98,1.07c-13.13-1.79-26.01-5.14-38.25-10.25c2.39,1.01,4.78,2.02,7.17,3.02
			c-9.96-4.21-19.38-9.57-27.95-16.17c2.02,1.56,4.05,3.13,6.07,4.69c-7.01-5.45-13.34-11.68-18.83-18.66
			c-2.72-2.93-5.94-4.99-9.65-6.2c-3.58-1.88-7.43-2.74-11.56-2.58c-7.36,0-16.15,3.27-21.21,8.79c-5.25,5.72-9.14,13.22-8.79,21.21
			c0.36,2.66,0.71,5.32,1.07,7.98c1.43,5.08,4,9.49,7.72,13.24c7.65,9.72,16.92,17.47,26.83,24.81
			c7.87,5.83,16.46,10.61,25.45,14.46c11.71,5.02,23.4,9.33,35.91,11.83c12.45,2.49,25.26,4.04,37.96,4.22
			c13.11,0.19,26.19-1.28,39.11-3.45c10.3-1.74,20.45-4.41,30.25-8.04c24.65-9.13,47.35-22.39,65.96-41.17
			c19.2-19.38,32.55-43.08,41.49-68.7c8.36-23.95,11.86-49.56,13.87-74.75c1.91-23.96,1.91-48.02,1.9-72.05
			c-0.01-28.21,0.21-56.41,0.25-84.62c0.09-60-0.3-120.01-1.59-180c-0.17-7.76-0.35-15.51-0.55-23.27
			c-0.2-7.81-3.21-15.64-8.79-21.21c-5.2-5.2-13.74-9.12-21.21-8.79c-7.76,0.35-15.81,2.9-21.21,8.79
			C377.11,268.06,373.43,275.44,373.63,283.49L373.63,283.49z"/>
	</g>
</g>
<g>
	<g>
		<path d="M399.05,75c4.13,0.16,7.98-0.71,11.56-2.58c3.72-1.21,6.94-3.28,9.65-6.2c2.93-2.72,4.99-5.94,6.2-9.65
			c1.88-3.58,2.74-7.43,2.58-11.56c-0.36-2.66-0.71-5.32-1.07-7.98c-1.43-5.08-4-9.49-7.72-13.24c-2.02-1.56-4.05-3.13-6.07-4.69
			c-4.68-2.71-9.73-4.08-15.14-4.1c-4.13-0.16-7.98,0.71-11.56,2.58c-3.72,1.21-6.94,3.28-9.65,6.2c-2.93,2.72-4.99,5.94-6.2,9.65
			c-1.88,3.58-2.74,7.43-2.58,11.56c0.36,2.66,0.71,5.32,1.07,7.98c1.43,5.08,4,9.49,7.72,13.24c2.02,1.56,4.05,3.13,6.07,4.69
			C388.59,73.62,393.64,74.98,399.05,75L399.05,75z"/>
	</g>
</g>
</svg>
