<?xml version="1.0" encoding="utf-8"?>
<!-- Generator: Adobe Illustrator 25.3.1, SVG Export Plug-In . SVG Version: 6.00 Build 0)  -->
<svg version="1.1" id="Layer_1" xmlns="http://www.w3.org/2000/svg" xmlns:xlink="http://www.w3.org/1999/xlink" x="0px" y="0px"
	 viewBox="0 0 595.28 841.89" style="enable-background:new 0 0 595.28 841.89;" xml:space="preserve">
<g>
	<g>
		<path d="M83.89,37c1.53,100.28,2.12,200.58,1.77,300.88c-0.35,99.78-1.62,199.56-3.83,299.32c-1.25,56.27-2.79,112.54-4.62,168.8
			c-0.51,15.7,14.16,30.71,30,30c16.69-0.75,29.45-13.18,30-30c3.27-100.24,5.61-200.51,7-300.8c1.39-99.77,1.84-199.56,1.37-299.34
			c-0.27-56.29-0.83-112.57-1.69-168.86c-0.12-7.77-3.26-15.69-8.79-21.21c-5.2-5.2-13.74-9.12-21.21-8.79
			C97.85,7.72,83.64,20.19,83.89,37L83.89,37z"/>
	</g>
</g>
<g>
	<g>
		<path d="M141.23,582.21c16.86-16.45,34.01-32.59,51.22-48.68c18.5-17.3,37.08-34.52,55.52-51.88
			c18.81-17.69,37.49-35.52,55.85-53.68c18.03-17.83,35.74-35.99,52.84-54.72c17.64-19.32,34.39-39.33,50.31-60.08
			c1.66-2.16,3.3-4.34,4.93-6.52c2.19-3.44,3.38-7.16,3.56-11.15c0.89-3.99,0.71-7.98-0.54-11.96c-0.93-3.9-2.72-7.3-5.37-10.2
			c-2.12-3.27-4.92-5.84-8.42-7.73c-2.39-1.01-4.78-2.02-7.17-3.02c-5.32-1.43-10.63-1.43-15.95,0c-2.39,1.01-4.78,2.02-7.17,3.02
			c-4.51,2.67-8.1,6.25-10.76,10.76c-2.04,2.74-4.1,5.45-6.19,8.15c1.56-2.02,3.13-4.05,4.69-6.07
			c-14.09,18.23-29.13,35.71-44.67,52.71c-16.53,18.09-33.64,35.65-51.04,52.9c-17.78,17.63-35.88,34.94-54.1,52.11
			c-17.88,16.85-35.89,33.57-53.85,50.33c-16.86,15.74-33.69,31.52-50.27,47.57c-1.96,1.9-3.91,3.8-5.87,5.7
			c-2.93,2.72-4.99,5.94-6.2,9.65c-1.88,3.58-2.74,7.43-2.58,11.56c-0.16,4.13,0.71,7.98,2.58,11.56c1.21,3.72,3.28,6.94,6.2,9.65
			c2.02,1.56,4.05,3.13,6.07,4.69c4.68,2.71,9.73,4.08,15.14,4.1c2.66-0.36,5.32-0.71,7.98-1.07
			C133.08,588.5,137.49,585.92,141.23,582.21L141.23,582.21z"/>
	</g>
</g>
<g>
	<g>
		<path d="M191.1,508.14c11.69,18.92,23.51,37.76,35.4,56.56c12.95,20.49,25.98,40.93,39.03,61.36
			c13.44,21.04,26.9,42.06,40.34,63.09c13.14,20.56,26.26,41.14,39.32,61.75c12.07,19.06,24.09,38.16,35.98,57.33
			c1.39,2.25,2.79,4.5,4.18,6.75c1.89,3.5,4.46,6.3,7.73,8.42c2.9,2.65,6.3,4.44,10.2,5.37c3.99,1.25,7.98,1.43,11.96,0.54
			c3.99-0.18,7.71-1.37,11.15-3.56c6.41-4.13,12.04-10.28,13.79-17.93c0.36-2.66,0.71-5.32,1.07-7.98
			c-0.02-5.42-1.38-10.46-4.1-15.14c-11.69-18.92-23.51-37.76-35.4-56.56c-12.95-20.49-25.98-40.93-39.03-61.36
			c-13.44-21.04-26.9-42.06-40.34-63.09c-13.14-20.56-26.26-41.14-39.32-61.75c-12.07-19.06-24.09-38.16-35.98-57.33
			c-1.39-2.25-2.79-4.5-4.18-6.75c-1.89-3.5-4.46-6.3-7.73-8.42c-2.9-2.65-6.3-4.44-10.2-5.37c-3.99-1.25-7.98-1.43-11.96-0.54
			c-3.99,0.18-7.71,1.37-11.15,3.56c-6.41,4.13-12.04,10.28-13.79,17.93c-0.36,2.66-0.71,5.32-1.07,7.98
			C187.02,498.42,188.38,503.46,191.1,508.14L191.1,508.14z"/>
	</g>
</g>
</svg>
