<?xml version="1.0" encoding="utf-8"?>
<!-- Generator: Adobe Illustrator 25.3.1, SVG Export Plug-In . SVG Version: 6.00 Build 0)  -->
<svg version="1.1" id="Layer_1" xmlns="http://www.w3.org/2000/svg" xmlns:xlink="http://www.w3.org/1999/xlink" x="0px" y="0px"
	 viewBox="0 0 595.28 841.89" style="enable-background:new 0 0 595.28 841.89;" xml:space="preserve">
<g>
	<g>
		<path d="M142,35c2.22,69.33,2.73,138.69,2.73,208.05c-0.01,69.35-0.52,138.7-0.33,208.05c0.1,34.43,0.37,68.85,0.97,103.28
			c0.57,32.86,0.95,65.82,2.92,98.64c1,16.69,2.77,33.42,5.8,49.88c3.04,16.49,8.21,32.01,15,47.33
			c11.55,26.06,31.24,47.81,55.32,62.9c46.1,28.9,107.26,31.76,155.54,6.75c4.9-2.54,9.57-5.46,14.03-8.7
			c6.5-4.73,11.58-9.91,13.79-17.93c1.98-7.18,1.08-16.74-3.02-23.12c-4.13-6.41-10.28-12.04-17.93-13.79
			c-7.42-1.69-16.7-1.65-23.12,3.02c-6.82,4.96-14.15,9.08-21.9,12.39c2.39-1.01,4.78-2.02,7.17-3.02
			c-9.84,4.1-20.14,6.82-30.7,8.25c2.66-0.36,5.32-0.71,7.98-1.07c-11.61,1.48-23.31,1.41-34.91-0.13c2.66,0.36,5.32,0.71,7.98,1.07
			c-11.6-1.63-22.91-4.69-33.73-9.2c2.39,1.01,4.78,2.02,7.17,3.02c-9.82-4.18-19.08-9.49-27.56-15.98
			c2.02,1.56,4.05,3.13,6.07,4.69c-7.4-5.76-14.06-12.32-19.85-19.7c1.56,2.02,3.13,4.05,4.69,6.07
			c-6.62-8.6-11.91-18.11-16.18-28.08c1.01,2.39,2.02,4.78,3.02,7.17c-6.72-16.07-10.59-33.07-12.96-50.28
			c0.36,2.66,0.71,5.32,1.07,7.98c-2.4-17.93-3.24-36.01-3.85-54.07c-0.71-21.2-1.24-42.41-1.65-63.62
			c-0.83-42.9-1.13-85.81-1.19-128.72c-0.12-85.56,0.71-171.13,0.19-256.69C204.27,131.28,203.54,83.13,202,35
			c-0.25-7.84-3.17-15.6-8.79-21.21C188.01,8.58,179.47,4.67,172,5C156.18,5.71,141.46,18.2,142,35L142,35z"/>
	</g>
</g>
</svg>
