<?xml version="1.0" encoding="utf-8"?>
<!-- Generator: Adobe Illustrator 25.3.1, SVG Export Plug-In . SVG Version: 6.00 Build 0)  -->
<svg version="1.1" id="Layer_1" xmlns="http://www.w3.org/2000/svg" xmlns:xlink="http://www.w3.org/1999/xlink" x="0px" y="0px"
	 viewBox="0 0 595.28 841.89" style="enable-background:new 0 0 595.28 841.89;" xml:space="preserve">
<g>
	<g>
		<path d="M3.56,335c5.24,61.3,7.57,122.83,8.28,184.34c0.73,62.72-0.28,125.45-2.3,188.14c-1.1,34.11-2.51,68.2-4.14,102.28
			c20,0,40,0,60,0c1.45-39.19,2.41-78.39,3.69-117.58c1.3-39.64,2.85-79.29,5.59-118.86c1.09-15.63,2.46-31.24,4.53-46.77
			c-0.36,2.66-0.71,5.32-1.07,7.98c3.31-24.64,8.24-49.4,17.93-72.4c-1.01,2.39-2.02,4.78-3.02,7.17
			c4.37-10.26,9.73-20.1,16.56-28.94c-1.56,2.02-3.13,4.05-4.69,6.07c4.63-5.93,9.89-11.31,15.82-15.94
			c-2.02,1.56-4.05,3.13-6.07,4.69c5.4-4.15,11.26-7.59,17.52-10.27c-2.39,1.01-4.78,2.02-7.17,3.02c7.15-3,14.66-4.94,22.34-5.99
			c-2.66,0.36-5.32,0.71-7.98,1.07c8.53-1.11,17.13-1.07,25.66,0.02c-2.66-0.36-5.32-0.71-7.98-1.07c9.9,1.34,19.51,4.04,28.72,7.87
			c-2.39-1.01-4.78-2.02-7.17-3.02c10.85,4.59,20.98,10.65,30.3,17.85c-2.02-1.56-4.05-3.13-6.07-4.69
			c9.77,7.64,18.55,16.45,26.16,26.25c-1.56-2.02-3.13-4.05-4.69-6.07c6.19,8.06,11.33,16.71,15.31,26.06
			c-1.01-2.39-2.02-4.78-3.02-7.17c6.16,14.74,9.42,30.41,11.55,46.2c-0.36-2.66-0.71-5.32-1.07-7.98
			c2.38,18.05,3.38,36.25,5.43,54.34c2.15,19.03,3.55,38.03,3.92,57.18c0.75,39.35-1.63,78.67-3.24,117.97
			c-0.88,21.4-1.54,42.83-1.22,64.25c0.12,7.77,3.26,15.69,8.79,21.21c5.2,5.2,13.74,9.12,21.21,8.79
			c7.76-0.35,15.81-2.9,21.21-8.79c5.46-5.95,8.59-13.02,8.79-21.21c0.86-35.55,0.99-71.11,1.53-106.66
			c0.55-36.68,1.47-73.37,3.97-109.98c1.28-18.75,2.91-37.5,5.39-56.13c-0.36,2.66-0.71,5.32-1.07,7.98
			c3.62-26.81,9.14-53.65,19.68-78.67c-1.01,2.39-2.02,4.78-3.02,7.17c5.12-12.02,11.42-23.52,19.39-33.9
			c-1.56,2.02-3.13,4.05-4.69,6.07c5.84-7.52,12.51-14.33,20.05-20.17c-2.02,1.56-4.05,3.13-6.07,4.69
			c6.77-5.17,14.12-9.49,21.95-12.83c-2.39,1.01-4.78,2.02-7.17,3.02c8.32-3.48,17.04-5.79,25.97-6.99
			c-2.66,0.36-5.32,0.71-7.98,1.07c10.14-1.3,20.37-1.18,30.5,0.17c-2.66-0.36-5.32-0.71-7.98-1.07
			c11.46,1.59,22.64,4.72,33.31,9.17c-2.39-1.01-4.78-2.02-7.17-3.02c11.19,4.73,21.72,10.85,31.34,18.27
			c-2.02-1.56-4.05-3.13-6.07-4.69c8.58,6.69,16.34,14.35,23.02,22.94c-1.56-2.02-3.13-4.05-4.69-6.07
			c5.83,7.6,10.75,15.81,14.49,24.63c-1.01-2.39-2.02-4.78-3.02-7.17c8.41,20.06,12.73,41.84,16.28,63.21
			c1.11,6.69,2.1,13.41,3.01,20.13c-0.36-2.66-0.71-5.32-1.07-7.98c3.61,26.98,5.96,54.16,7.25,81.35
			c0.44,9.19,1.07,18.36,1.43,27.56c0.89,22.83,1.06,45.69,1.13,68.54c0.1,29.79-0.07,59.59-0.12,89.38
			c-0.01,7.68,3.36,15.78,8.79,21.21c5.2,5.2,13.74,9.12,21.21,8.79c7.76-0.35,15.81-2.9,21.21-8.79
			c5.39-5.88,8.77-13.08,8.79-21.21c0.07-42.23,0.47-84.46-0.2-126.68c-0.33-20.79-1.33-41.53-2.41-62.29
			c-1.16-22.42-3.03-44.82-5.71-67.11c-3.63-30.11-7.73-60.82-17.18-89.75c-4.71-14.44-10.82-28.64-19.74-41
			c-6.04-8.37-12.54-16.45-20.05-23.56c-7.43-7.04-15.64-13.41-24.16-19.06c-6.74-4.47-13.86-8.36-21.27-11.61
			c-9.45-4.14-18.95-7.97-28.98-10.45c-10.06-2.49-20.5-3.97-30.84-4.56c-10.28-0.59-20.28,0.52-30.45,2
			c-7.76,1.12-15.39,3.12-22.67,6.01c-9.6,3.81-18.89,8.02-27.37,13.95c-16.92,11.85-30.68,26.48-41.7,43.99
			c-9.91,15.73-17.11,33.42-22.62,51.13c-5.02,16.13-8.44,32.72-10.99,49.41c-6.51,42.73-9.06,85.98-10.48,129.14
			c-1.42,43.42-1.52,86.86-2.17,130.3c-0.15,10.05-0.33,20.11-0.58,30.16c20,0,40,0,60,0c-0.55-35.86,1.61-71.7,3.1-107.51
			c1.53-36.5,2.59-73.15-0.28-109.61c-1.34-17.01-3.48-33.96-4.99-50.95c-1.68-18.88-3.51-37.96-7.85-56.44
			c-1.87-7.99-4.32-15.82-7.48-23.4c-4.06-9.76-8.33-19.2-14.4-27.89c-5.7-8.16-11.95-16.08-18.84-23.27
			c-7.05-7.36-14.9-13.66-23-19.84c-14.03-10.71-30.31-18.77-47.14-24c-9.49-2.95-19.36-4.44-29.24-5.42
			c-7.49-0.74-15.01-0.6-22.47,0.35c-8.49,1.08-16.85,2.24-24.97,5.02c-7.45,2.55-14.89,5.68-21.69,9.68
			c-11.31,6.65-21.73,15.52-29.88,25.82c-8.7,10.99-15.96,22.29-21.49,35.19c-5.85,13.63-10.71,27.38-14.17,41.81
			c-6.65,27.7-9.74,56.32-11.91,84.68c-2.72,35.55-4.22,71.2-5.5,106.83c-1.34,37.26-2.29,74.54-3.49,111.8
			c-0.28,8.64-0.57,17.28-0.89,25.92c-0.28,7.51,3.54,15.97,8.79,21.21c5.2,5.2,13.74,9.12,21.21,8.79
			c7.76-0.35,15.81-2.9,21.21-8.79c5.53-6.03,8.39-12.97,8.79-21.21c2.93-61.5,5.17-123.05,6.14-184.62
			c0.99-62.69,0.71-125.41-1.75-188.06c-1.34-34.07-3.34-68.12-6.24-102.09c0.16-4.13-0.71-7.98-2.58-11.56
			c-1.21-3.72-3.28-6.94-6.2-9.65c-5.2-5.2-13.74-9.12-21.21-8.79c-7.76,0.35-15.81,2.9-21.21,8.79
			C7.23,319.36,2.89,327.15,3.56,335L3.56,335z"/>
	</g>
</g>
</svg>
