<?xml version="1.0" encoding="utf-8"?>
<!-- Generator: Adobe Illustrator 25.4.1, SVG Export Plug-In . SVG Version: 6.00 Build 0)  -->
<svg version="1.1" id="Layer_2" xmlns="http://www.w3.org/2000/svg" xmlns:xlink="http://www.w3.org/1999/xlink" x="0px" y="0px"
	 viewBox="0 0 97.07 300" style="enable-background:new 0 0 97.07 300;" xml:space="preserve">
<style type="text/css">
	.st0{fill:none;stroke:#000000;stroke-width:5;stroke-linecap:round;stroke-linejoin:round;stroke-miterlimit:10;}
</style>
<path class="st0" d="M74.05,122.79c0.39-7.29-4.4-14.22-10.79-17.74c-6.39-3.52-14.08-4.04-21.3-2.96
	c-9.79,1.47-19.36,5.97-25.63,13.63c-3.94,4.82-6.43,10.66-8.27,16.6c-4.32,13.96-5.11,29.66,1.38,42.75
	c6.5,13.09,21.55,22.46,35.8,19.27c17.71-3.97,26.72-24.02,28.88-42.05c2-16.63,0.5-33.47-0.99-50.15
	c0.43,21.17,0.86,42.33,1.29,63.5c0.14,6.78,0.31,13.76,2.93,20.02c2.61,6.26,8.27,11.74,15.04,12.08"/>
</svg>
