<?xml version="1.0" encoding="utf-8"?>
<!-- Generator: Adobe Illustrator 25.3.1, SVG Export Plug-In . SVG Version: 6.00 Build 0)  -->
<svg version="1.1" id="Layer_1" xmlns="http://www.w3.org/2000/svg" xmlns:xlink="http://www.w3.org/1999/xlink" x="0px" y="0px"
	 viewBox="0 0 595.28 841.89" style="enable-background:new 0 0 595.28 841.89;" xml:space="preserve">
<g>
	<g>
		<path d="M913.31,283.2c3.22,0,3.22-5,0-5C910.1,278.2,910.09,283.2,913.31,283.2L913.31,283.2z"/>
	</g>
</g>
<g>
	<g>
		<path d="M82.55,817.58c15.64-47.97,30.84-96.08,45.57-144.34c15-49.17,29.51-98.48,43.46-147.96
			c13.97-49.54,27.39-99.24,40.14-149.11c12.46-48.75,23.24-97.95,36.19-146.57c12.98-48.72,28.38-96.85,47.14-143.67
			c2.34-5.84,4.73-11.65,7.17-17.45c-1.01,2.39-2.02,4.78-3.02,7.17c3.94-9.33,8.02-18.59,12.24-27.8c-17.27,0-34.54,0-51.81,0
			c1.39,3.23,2.77,6.46,4.14,9.7c-1.01-2.39-2.02-4.78-3.02-7.17c20.51,48.62,38.55,98.24,54.98,148.38
			c16.24,49.56,30.93,99.61,45.16,149.78c14.33,50.52,28.19,101.16,42.71,151.63c14.63,50.85,31.44,101,49.78,150.63
			c18.44,49.91,38.22,99.3,58.14,148.63c2.44,6.05,4.89,12.1,7.33,18.14c3.05,7.53,6.5,13.67,13.79,17.93
			c6.43,3.76,15.91,5.36,23.12,3.02c7.26-2.35,14.26-6.85,17.93-13.79c3.52-6.66,5.98-15.8,3.02-23.12
			c-20.22-50.02-40.45-100.04-59.43-150.55c-18.88-50.24-36.53-100.96-51.65-152.47c-15.02-51.14-28.97-102.59-43.44-153.88
			c-14.43-51.14-29.25-102.17-45.6-152.73c-16.38-50.63-34.31-100.79-54.77-149.93c-3.41-8.19-6.86-16.35-10.36-24.5
			c-4.03-9.36-16.35-14.86-25.9-14.86c-9.75,0-21.63,5.53-25.9,14.86c-22.73,49.6-41.73,100.82-57.4,153.06
			c-15.11,50.34-26.38,101.64-39.04,152.63c-12.83,51.67-26.42,103.15-40.62,154.46C108.3,529.22,93.42,580.55,78,631.73
			c-15.25,50.62-31.03,101.09-47.3,151.4c-2,6.17-4,12.34-6.01,18.51c-4.87,14.93,5.66,33.42,20.95,36.9
			C62.11,842.29,77.33,833.56,82.55,817.58L82.55,817.58z"/>
	</g>
</g>
<g>
	<g>
		<path d="M191.8,475.92c16.48,3.43,33.09,5.97,49.78,8.15c14.16,1.85,28.39,3.15,42.65,3.9c28.51,1.51,57.14,0.83,85.54-2.02
			c18.47-1.86,36.91-4.45,55.17-7.87c3.9-0.93,7.3-2.72,10.2-5.37c3.27-2.12,5.84-4.92,7.73-8.42c1.01-2.39,2.02-4.78,3.02-7.17
			c1.25-3.99,1.43-7.98,0.54-11.96c-0.01-2.71-0.69-5.23-2.05-7.57c-1.21-3.72-3.28-6.94-6.2-9.65c-2.02-1.56-4.05-3.13-6.07-4.69
			c-4.68-2.71-9.73-4.08-15.14-4.1c-5.63-0.38-13.44,1.86-18.11,4.97c-5.13,3.42-10.03,7.71-12.78,13.37
			c-0.68,1.4-2.95,5.95-3.52,8.8c-0.22,1.42-0.41,2.84-0.58,4.27c-0.22,1.42-0.41,2.84-0.57,4.27c-0.02,0.38-0.02,0.74,0,1.12
			c0.21,3.14,0.4,6.44,1.44,9.44c2.06,5.95,4.02,9.86,8.44,14.42c4.07,4.2,10.04,7.88,15.79,9.18c6.11,1.37,13.01,1.79,19.04-0.31
			c5.89-2.06,11.59-4.75,15.8-9.56c4.73-5.4,5.95-7.59,8.4-14.38c1.09-3.02,1.18-6.47,1.45-9.58c0.16-4.13-0.71-7.98-2.58-11.56
			c-1.21-3.72-3.28-6.94-6.2-9.65c-2.72-2.93-5.94-4.99-9.65-6.2c-3.58-1.88-7.43-2.74-11.56-2.58c-2.66,0.36-5.32,0.71-7.98,1.07
			c-5.08,1.43-9.49,4-13.24,7.72c-1.56,2.02-3.13,4.05-4.69,6.07c-2.71,4.68-4.08,9.73-4.1,15.14c-0.01,0.09-0.02,0.19-0.02,0.28
			c0.36-2.66,0.71-5.32,1.07-7.98c-0.07,0.46-0.18,0.89-0.35,1.32c1.01-2.39,2.02-4.78,3.02-7.17c-0.19,0.41-0.41,0.78-0.68,1.14
			c1.56-2.02,3.13-4.05,4.69-6.07c-0.29,0.34-0.6,0.65-0.94,0.93c2.02-1.56,4.05-3.13,6.07-4.69c-0.43,0.32-0.88,0.59-1.37,0.81
			c2.39-1.01,4.78-2.02,7.17-3.02c-0.5,0.2-1,0.34-1.53,0.44c2.66-0.36,5.32-0.71,7.98-1.07c-0.52,0.07-1.03,0.07-1.56,0.02
			c2.66,0.36,5.32,0.71,7.98,1.07c-0.43-0.07-0.83-0.18-1.23-0.34c2.39,1.01,4.78,2.02,7.17,3.02c-0.32-0.15-0.61-0.32-0.89-0.52
			c2.02,1.56,4.05,3.13,6.07,4.69c-0.28-0.23-0.53-0.47-0.77-0.75c1.56,2.02,3.13,4.05,4.69,6.07c-0.23-0.3-0.42-0.61-0.58-0.95
			c1.01,2.39,2.02,4.78,3.02,7.17c-0.18-0.43-0.3-0.86-0.39-1.32c0.36,2.66,0.71,5.32,1.07,7.98c-0.07-0.56-0.07-1.11-0.01-1.67
			c-0.36,2.66-0.71,5.32-1.07,7.98c0.1-0.67,0.28-1.29,0.54-1.91c-1.01,2.39-2.02,4.78-3.02,7.17c0.24-0.52,0.52-1,0.86-1.46
			c-1.56,2.02-3.13,4.05-4.69,6.07c0.35-0.43,0.72-0.81,1.16-1.15c-2.02,1.56-4.05,3.13-6.07,4.69c0.29-0.21,0.59-0.38,0.91-0.54
			c-2.39,1.01-4.78,2.02-7.17,3.02c0.41-0.17,0.82-0.28,1.26-0.34c-2.66,0.36-5.32,0.71-7.98,1.07c0.27-0.02,0.53-0.02,0.8,0
			c-2.66-19.64-5.32-39.29-7.98-58.93c-9.47,1.78-18.99,3.31-28.54,4.61c2.66-0.36,5.32-0.71,7.98-1.07
			c-19.32,2.6-38.77,4.19-58.26,4.76c-19.4,0.57-38.83,0.12-58.18-1.33c-10.96-0.82-21.9-1.97-32.79-3.43
			c2.66,0.36,5.32,0.71,7.98,1.07c-13.22-1.79-26.36-4.04-39.42-6.76c-3.99-1.25-7.98-1.43-11.96-0.54
			c-3.99,0.18-7.71,1.37-11.15,3.56c-3.5,1.89-6.3,4.46-8.42,7.73c-2.65,2.9-4.44,6.3-5.37,10.2c-0.36,2.66-0.71,5.32-1.07,7.98
			c0.02,5.42,1.38,10.46,4.1,15.14c1.56,2.02,3.13,4.05,4.69,6.07C182.3,471.92,186.71,474.5,191.8,475.92L191.8,475.92z"/>
	</g>
</g>
</svg>
