<?xml version="1.0" encoding="utf-8"?>
<!-- Generator: Adobe Illustrator 25.3.1, SVG Export Plug-In . SVG Version: 6.00 Build 0)  -->
<svg version="1.1" id="Layer_1" xmlns="http://www.w3.org/2000/svg" xmlns:xlink="http://www.w3.org/1999/xlink" x="0px" y="0px"
	 viewBox="0 0 595.28 841.89" style="enable-background:new 0 0 595.28 841.89;" xml:space="preserve">
<g>
	<g>
		<path d="M123.78,32.36c-4.38,101.45-5.54,203.03-3.44,304.55c2.1,101.59,7.46,203.11,16.05,304.36
			c4.85,57.16,10.73,114.23,17.61,171.18c1,8.24,2.69,15.11,8.79,21.21c5.2,5.2,13.74,9.12,21.21,8.79
			c7.76-0.35,15.81-2.9,21.21-8.79c5.01-5.45,9.72-13.51,8.79-21.21c-12.21-101.01-21.24-202.4-27.01-303.99
			c-5.76-101.39-8.28-202.97-7.54-304.52c0.41-57.22,1.87-114.43,4.33-171.59c0.68-15.7-14.28-30.7-30-30
			C136.95,3.11,124.51,15.54,123.78,32.36L123.78,32.36z"/>
	</g>
</g>
<g>
	<g>
		<path d="M159.73,62.36c28.08,1.65,56.17,3.38,84.07,7.07c-2.66-0.36-5.32-0.71-7.98-1.07c31.64,4.27,63.07,11.17,92.59,23.56
			c-2.39-1.01-4.78-2.02-7.17-3.02c17.91,7.62,34.84,17.38,50.27,29.25c-2.02-1.56-4.05-3.13-6.07-4.69
			c12.8,9.95,24.44,21.29,34.39,34.1c-1.56-2.02-3.13-4.05-4.69-6.07c8.1,10.57,14.94,21.99,20.17,34.24
			c-1.01-2.39-2.02-4.78-3.02-7.17c4.59,10.99,7.8,22.44,9.46,34.25c-0.36-2.66-0.71-5.32-1.07-7.98
			c1.61,12.23,1.54,24.55-0.06,36.78c0.36-2.66,0.71-5.32,1.07-7.98c-1.91,13.8-5.71,27.2-11.08,40.05
			c1.01-2.39,2.02-4.78,3.02-7.17c-6,14.08-13.78,27.27-23.06,39.43c1.56-2.02,3.13-4.05,4.69-6.07
			c-9.88,12.78-21.3,24.24-34.07,34.13c2.02-1.56,4.05-3.13,6.07-4.69c-13.74,10.48-28.87,18.97-44.74,25.77
			c2.39-1.01,4.78-2.02,7.17-3.02c-21.18,8.92-43.49,14.64-66.22,17.8c2.66-0.36,5.32-0.71,7.98-1.07
			c-29.04,3.9-58.47,3.65-87.55,0.27c0,20,0,40,0,60c41.77-2.81,83.73-10.29,125.6-4.84c-2.66-0.36-5.32-0.71-7.98-1.07
			c18.1,2.46,35.72,7.4,52.54,14.49c-2.39-1.01-4.78-2.02-7.17-3.02c17.15,7.34,33.25,16.85,48.02,28.24
			c-2.02-1.56-4.05-3.13-6.07-4.69c14.41,11.23,27.38,24.15,38.61,38.57c-1.56-2.02-3.13-4.05-4.69-6.07
			c10.67,13.86,19.61,28.94,26.48,45.03c-1.01-2.39-2.02-4.78-3.02-7.17c6.92,16.48,11.54,33.77,13.97,51.47
			c-0.36-2.66-0.71-5.32-1.07-7.98c2.49,18.98,2.43,38.17-0.05,57.15c0.36-2.66,0.71-5.32,1.07-7.98
			c-2.64,19.37-7.77,38.28-15.37,56.29c1.01-2.39,2.02-4.78,3.02-7.17c-6.9,16.11-15.71,31.3-26.41,45.2
			c1.56-2.02,3.13-4.05,4.69-6.07c-11.36,14.58-24.65,27.49-39.24,38.81c2.02-1.56,4.05-3.13,6.07-4.69
			c-17.51,13.42-36.72,24.41-57.01,33.06c2.39-1.01,4.78-2.02,7.17-3.02c-22.66,9.52-46.44,15.99-70.79,19.37
			c2.66-0.36,5.32-0.71,7.98-1.07c-24.82,3.31-49.94,3.37-74.76,0.04c2.66,0.36,5.32,0.71,7.98,1.07c-1.38-0.19-2.75-0.39-4.12-0.6
			c-8.29-1.24-15.59-1.38-23.12,3.02c-6.22,3.64-12.16,10.78-13.79,17.93c-1.75,7.68-1.37,16.3,3.02,23.12
			c3.94,6.11,10.4,12.66,17.93,13.79c17.34,2.6,34.7,4.36,52.26,4.17c17.49-0.2,34.96-2.13,52.19-5.09
			c31.86-5.47,62.96-16.61,91.38-31.98c26.92-14.55,52.23-33.86,72.32-57.02c20.35-23.46,35.47-49.9,45.85-79.15
			c9.48-26.73,14.01-55.86,13.58-84.2c-0.43-28.32-5.6-57.15-16.45-83.37c-11.38-27.5-26.83-52.22-47.17-74.08
			c-18.43-19.82-40.74-36.88-64.73-49.43c-13.02-6.81-26.75-12.6-40.75-17.07c-14.21-4.54-28.72-7.12-43.51-8.97
			c-33.3-4.17-66.81-0.17-100.01,2.96c-8.15,0.77-16.3,1.48-24.47,2.03c-8.01,0.54-15.41,2.98-21.21,8.79
			c-5.2,5.2-9.12,13.74-8.79,21.21c0.35,7.76,2.9,15.81,8.79,21.21c2.02,1.56,4.05,3.13,6.07,4.69c4.68,2.71,9.73,4.08,15.14,4.1
			c25.6,2.97,51.5,3.57,77.16,0.96c27.91-2.84,55.55-8.23,81.61-18.86c26.95-10.99,51.57-25.18,73.13-44.94
			c18.5-16.96,34.45-37.84,45.53-60.37c12.12-24.65,19.61-50.99,20.5-78.55c0.89-27.54-5.96-54.46-17.99-79.08
			c-10.76-22.02-26.92-42.03-45.2-58.26c-18.76-16.66-39.92-30.77-62.85-41.01c-27.03-12.07-55.14-20.36-84.29-25.42
			c-30.12-5.23-60.6-7.96-91.09-9.9c-6.89-0.44-13.78-0.85-20.67-1.25c-15.69-0.92-30.7,14.46-30,30
			C130.5,49.4,142.92,61.37,159.73,62.36L159.73,62.36z"/>
	</g>
</g>
</svg>
