<?xml version="1.0" encoding="utf-8"?>
<!-- Generator: Adobe Illustrator 25.3.1, SVG Export Plug-In . SVG Version: 6.00 Build 0)  -->
<svg version="1.1" id="Layer_1" xmlns="http://www.w3.org/2000/svg" xmlns:xlink="http://www.w3.org/1999/xlink" x="0px" y="0px"
	 viewBox="0 0 595.28 841.89" style="enable-background:new 0 0 595.28 841.89;" xml:space="preserve">
<g>
	<g>
		<path d="M515.32,170.38c-14.09-27-28.13-54.03-42.26-81.01c-13.51-25.79-29.52-50.99-54.96-66.49
			c-12.9-7.85-27.83-13.04-42.64-15.87C362.19,4.48,348.55,2.91,335.02,3c-24.25,0.17-48.92,4.73-71.59,13.33
			c-46.83,17.76-88.14,48.68-119.1,88.04c-15.7,19.95-29.54,40.96-39.96,64.16c-11.83,26.37-20.72,53.82-26.45,82.15
			c-11.52,56.96-12.49,115.28-9.08,173.1c1.63,27.58,4.15,55.1,6.86,82.59c2.81,28.54,6.05,57.09,10.88,85.36
			c4.41,25.83,10.34,51.47,19.1,76.19c9.16,25.87,20.76,51.46,36.57,73.99c29.61,42.2,72.24,75.45,121.92,90.41
			c49.27,14.84,103.94,7.66,145.45-23.6c10.95-8.24,21.22-17.02,30.48-27.13c9.34-10.2,17.83-21.25,25.82-32.52
			c14.04-19.83,25.95-41.04,37.85-62.2c7.19-12.8,14.39-25.59,21.58-38.39c7.69-13.68,3.72-33.39-10.76-41.05
			c-14.18-7.49-32.83-3.85-41.05,10.76c-21.1,37.53-40.78,76.74-67.1,110.99c1.56-2.02,3.13-4.05,4.69-6.07
			c-10.84,13.98-22.93,26.97-36.95,37.8c2.02-1.56,4.05-3.13,6.07-4.69c-9.44,7.18-19.59,13.25-30.49,17.94
			c2.39-1.01,4.78-2.02,7.17-3.02c-10.37,4.35-21.18,7.28-32.32,8.8c2.66-0.36,5.32-0.71,7.98-1.07
			c-12.04,1.54-24.16,1.4-36.18-0.18c2.66,0.36,5.32,0.71,7.98,1.07c-14.39-2-28.36-6.02-41.75-11.62c2.39,1.01,4.78,2.02,7.17,3.02
			c-15.76-6.71-30.5-15.5-44.06-25.96c2.02,1.56,4.05,3.13,6.07,4.69c-13.88-10.82-26.37-23.28-37.16-37.19
			c1.56,2.02,3.13,4.05,4.69,6.07c-13.1-17.09-23.44-36.19-31.84-55.97c1.01,2.39,2.02,4.78,3.02,7.17
			c-16.32-38.89-24.69-80.46-30.29-122.1c0.36,2.66,0.71,5.32,1.07,7.98c-4.51-33.92-7.65-68.08-10.36-102.19
			c-2.81-35.36-4.59-70.85-3.61-106.33c0.55-19.73,1.99-39.43,4.57-59c-0.36,2.66-0.71,5.32-1.07,7.98
			c4.6-34.06,12.77-67.74,26.12-99.47c-1.01,2.39-2.02,4.78-3.02,7.17c9.27-21.78,21.36-42.24,35.76-61.02
			c-1.56,2.02-3.13,4.05-4.69,6.07c14.26-18.42,30.67-35.08,49.08-49.38c-2.02,1.56-4.05,3.13-6.07,4.69
			c15.98-12.29,33.32-22.7,51.9-30.56c-2.39,1.01-4.78,2.02-7.17,3.02c15.54-6.47,31.76-11.06,48.44-13.36
			c-2.66,0.36-5.32,0.71-7.98,1.07c14.97-1.97,30.08-2.04,45.06-0.1c-2.66-0.36-5.32-0.71-7.98-1.07c11.33,1.54,22.5,4.1,33.1,8.45
			c-2.39-1.01-4.78-2.02-7.17-3.02c6.76,2.88,13.1,6.45,18.92,10.94c-2.02-1.56-4.05-3.13-6.07-4.69
			c6.05,4.81,11.34,10.38,16.1,16.46c-1.56-2.02-3.13-4.05-4.69-6.07c12.31,16.04,21,34.6,30.31,52.45
			c10.91,20.92,21.83,41.84,32.74,62.76c7.27,13.94,27.88,19.25,41.05,10.76C518.76,202.27,523.1,185.29,515.32,170.38
			L515.32,170.38z"/>
	</g>
</g>
</svg>
