<?xml version="1.0" encoding="utf-8"?>
<!-- Generator: Adobe Illustrator 25.3.1, SVG Export Plug-In . SVG Version: 6.00 Build 0)  -->
<svg version="1.1" id="Layer_1" xmlns="http://www.w3.org/2000/svg" xmlns:xlink="http://www.w3.org/1999/xlink" x="0px" y="0px"
	 viewBox="0 0 595.28 841.89" style="enable-background:new 0 0 595.28 841.89;" xml:space="preserve">
<g>
	<g>
		<path d="M73.01,33.03c2.51,50.91,4.78,101.82,6.83,152.75c1.95,48.36,3.71,96.74,5.37,145.11c1.63,47.51,3.16,95.03,4.69,142.55
			c1.62,50.06,3.32,100.1,5.62,150.14c2.39,52.09,4.89,104.19,5.6,156.34c0.09,6.59,0.15,13.18,0.18,19.77
			c0.08,15.69,13.74,30.73,30,30c16.19-0.72,30.08-13.18,30-30c-0.26-52.2-2.49-104.36-4.89-156.5
			c-2.33-50.81-4.32-101.63-5.96-152.47c-1.54-47.53-3.06-95.06-4.67-142.58c-1.62-47.94-3.33-95.89-5.22-143.82
			c-1.99-50.51-4.17-101.02-6.61-151.51c-0.32-6.59-0.64-13.19-0.97-19.78c-0.39-7.93-3.08-15.51-8.79-21.21
			c-5.2-5.2-13.74-9.12-21.21-8.79c-7.76,0.35-15.81,2.9-21.21,8.79C76.56,17.52,72.61,25.06,73.01,33.03L73.01,33.03z"/>
	</g>
</g>
<g>
	<g>
		<path d="M102.24,62c12.17,1.01,24.3,2.33,36.4,3.96c-2.66-0.36-5.32-0.71-7.98-1.07c48.13,6.56,95.76,17.77,142.6,30.54
			c11.31,3.08,22.38,6.96,33.18,11.51c-2.39-1.01-4.78-2.02-7.17-3.02c21.84,9.32,42.31,21.49,61.13,35.96
			c-2.02-1.56-4.05-3.13-6.07-4.69c21.56,16.71,40.74,36.25,57.42,57.81c-1.56-2.02-3.13-4.05-4.69-6.07
			c18.41,23.96,33.66,50.23,45.48,78.03c-1.01-2.39-2.02-4.78-3.02-7.17c17.37,41.21,27.44,85.09,33.43,129.3
			c-0.36-2.66-0.71-5.32-1.07-7.98c7.35,55.03,9.05,110.84,10.07,166.3c0.29,15.77,0.07,31.57-2.03,47.22
			c0.36-2.66,0.71-5.32,1.07-7.98c-1.84,13.03-5.08,25.72-10.17,37.87c1.01-2.39,2.02-4.78,3.02-7.17
			c-5.81,13.53-13.55,26.04-22.54,37.68c1.56-2.02,3.13-4.05,4.69-6.07c-15.94,20.4-35.27,37.82-55.67,53.65
			c2.02-1.56,4.05-3.13,6.07-4.69c-31.41,24.26-65.71,44.76-102.3,60.21c2.39-1.01,4.78-2.02,7.17-3.02
			c-28.89,12.09-59.11,20.94-90.16,25.22c2.66-0.36,5.32-0.71,7.98-1.07c-24.44,3.26-49.17,3.62-73.64,0.43
			c2.66,0.36,5.32,0.71,7.98,1.07c-8.91-1.21-17.74-2.86-26.47-4.99c-7.71-1.87-16.2-1.03-23.12,3.02
			c-6.22,3.64-12.16,10.78-13.79,17.93c-3.52,15.45,4.64,32.94,20.95,36.9c89.68,21.79,183.43-2.63,261.92-47.8
			c17.98-10.35,35.27-21.91,51.74-34.53c18.27-14,36.06-28.58,51.64-45.58c14.93-16.29,28.72-34.54,37.9-54.75
			c5.44-11.99,10.07-24.18,12.73-37.1c2.75-13.33,4.26-27.02,4.84-40.61c0.99-23.3-0.3-46.74-1.06-70.04
			c-0.76-23.27-1.76-46.53-3.48-69.75c-3.58-48.36-9.99-97.02-23.61-143.67c-11.66-39.94-28.58-78.76-51.88-113.33
			c-23.46-34.81-51.89-64.87-85.59-89.86c-32.88-24.38-70.34-40.27-109.82-50.4c-45.97-11.79-92.03-22.24-139.12-28.46
			c-11.63-1.54-23.29-2.8-34.98-3.77c-7.28-0.6-16.21,3.78-21.21,8.79c-5.2,5.2-9.12,13.74-8.79,21.21
			c0.35,7.76,2.9,15.81,8.79,21.21C87.16,58.85,93.93,61.31,102.24,62L102.24,62z"/>
	</g>
</g>
</svg>
