<?xml version="1.0" encoding="utf-8"?>
<!-- Generator: Adobe Illustrator 25.3.1, SVG Export Plug-In . SVG Version: 6.00 Build 0)  -->
<svg version="1.1" id="Layer_1" xmlns="http://www.w3.org/2000/svg" xmlns:xlink="http://www.w3.org/1999/xlink" x="0px" y="0px"
	 viewBox="0 0 595.28 841.89" style="enable-background:new 0 0 595.28 841.89;" xml:space="preserve">
<g>
	<g>
		<path d="M69.88,31c-0.45,101.68-0.91,203.37-1.36,305.05s-0.91,203.37-1.36,305.05c-0.25,56.84-0.51,113.68-0.76,170.51
			c-0.07,16.4,13.81,29.75,30,30c51.77,0.79,103.54,1.38,155.32,1.74c46.66,0.32,93.33,0.44,139.99,0.49
			c27.43,0.02,54.86,0.02,82.29,0.02c15.69,0,30.73-13.8,30-30c-0.73-16.25-13.18-30-30-30c-47.74,0-95.48,0-143.22-0.13
			c-47.79-0.14-95.58-0.43-143.37-0.93c-30.34-0.32-60.68-0.72-91.01-1.18c10,10,20,20,30,30c0.45-101.68,0.91-203.37,1.36-305.05
			s0.91-203.37,1.36-305.05c0.25-56.84,0.51-113.68,0.76-170.51c0.07-15.69-13.85-30.72-30-30C83.57,1.73,69.96,14.18,69.88,31
			L69.88,31z"/>
	</g>
</g>
<g>
	<g>
		<path d="M126.96,406.31c25.29,0.99,50.59,1.87,75.9,2.37c13.82,0.28,27.65,0.44,41.47,0.3c7.64-0.08,15.27-0.31,22.9-0.49
			c12.31-0.3,24.62,0.07,36.92-0.4c4.86-0.19,9.68-0.67,14.52-1.09c7.54-0.65,15.12-0.73,22.68-0.76c3.52-0.02,7.05-0.01,10.57,0
			c4.13,0.16,7.98-0.71,11.56-2.58c3.72-1.21,6.94-3.28,9.65-6.2c2.93-2.72,4.99-5.94,6.2-9.65c1.88-3.58,2.74-7.43,2.58-11.56
			c-0.36-2.66-0.71-5.32-1.07-7.98c-1.43-5.08-4-9.49-7.72-13.24c-2.02-1.56-4.05-3.13-6.07-4.69c-4.68-2.71-9.73-4.08-15.14-4.1
			c-9.96-0.04-19.95-0.13-29.89,0.51c-4.45,0.29-8.88,0.84-13.33,1.12c-13.08,0.81-26.19,0.3-39.29,0.58
			c-7.26,0.15-14.51,0.4-21.77,0.5c-12.74,0.18-25.48,0.08-38.22-0.14c-23.63-0.4-47.25-1.17-70.86-2.05
			c-3.87-0.14-7.75-0.29-11.62-0.44c-4.13-0.16-7.98,0.71-11.56,2.58c-3.72,1.21-6.94,3.28-9.65,6.2c-2.93,2.72-4.99,5.94-6.2,9.65
			c-1.88,3.58-2.74,7.43-2.58,11.56c0.36,2.66,0.71,5.32,1.07,7.98c1.43,5.08,4,9.49,7.72,13.24c2.02,1.56,4.05,3.13,6.07,4.69
			C116.5,404.92,121.55,406.29,126.96,406.31L126.96,406.31z"/>
	</g>
</g>
<g>
	<g>
		<path d="M99.88,61c22.38,2.97,44.86,5.21,67.37,6.96c23.6,1.83,47.23,3.13,70.88,4.08c24.07,0.96,48.16,1.55,72.25,1.89
			c23.72,0.34,47.44,0.44,71.16,0.41c22.86-0.03,45.72-0.19,68.58-0.38c2.77-0.02,5.53-0.05,8.3-0.07
			c7.73-0.06,15.73-3.3,21.21-8.79c2.93-2.72,4.99-5.94,6.2-9.65c1.88-3.58,2.74-7.43,2.58-11.56c-0.35-7.76-2.9-15.81-8.79-21.21
			c-5.84-5.36-13.11-8.85-21.21-8.79c-22.69,0.19-45.37,0.36-68.06,0.43c-23.75,0.06-47.49,0.01-71.24-0.28
			c-24.1-0.29-48.19-0.81-72.27-1.68c-23.63-0.86-47.26-2.05-70.85-3.75c-22.69-1.64-45.36-3.74-67.93-6.56
			c-2.73-0.34-5.46-0.69-8.19-1.06c-4.13-0.16-7.98,0.71-11.56,2.58c-3.72,1.21-6.94,3.28-9.65,6.2c-2.93,2.72-4.99,5.94-6.2,9.65
			c-1.88,3.58-2.74,7.43-2.58,11.56c0.35,7.76,2.9,15.81,8.79,21.21c2.02,1.56,4.05,3.13,6.07,4.69
			C89.42,59.62,94.47,60.98,99.88,61L99.88,61z"/>
	</g>
</g>
</svg>
