<?xml version="1.0" encoding="utf-8"?>
<!-- Generator: Adobe Illustrator 25.3.1, SVG Export Plug-In . SVG Version: 6.00 Build 0)  -->
<svg version="1.1" id="Layer_1" xmlns="http://www.w3.org/2000/svg" xmlns:xlink="http://www.w3.org/1999/xlink" x="0px" y="0px"
	 viewBox="0 0 595.28 841.89" style="enable-background:new 0 0 595.28 841.89;" xml:space="preserve">
<g>
	<g>
		<path d="M520.93,194.02c-8.79-25.53-19.37-50.7-32.52-74.31c-13.89-24.94-31.13-49.04-52.27-68.36
			c-22.9-20.92-50.86-37.51-81.62-43.35c-17.19-3.27-34.47-4.3-51.84-2.03c-9.86,1.29-19.53,2.81-29.07,5.63
			c-9.69,2.86-19.09,6.75-28.25,10.97c-30.47,14.03-57.34,37-78.72,62.63c-23.46,28.13-41.35,59.3-56.22,92.68
			c-15.7,35.25-28.61,71.6-37.73,109.12c-9.17,37.71-14.87,76.43-17.29,115.15c-4.67,74.83,4.06,151.3,26.08,223
			c21.65,70.51,56.77,143.34,121.01,184.28c28.32,18.05,62.84,26.5,96.11,28.04c33.1,1.52,69.02-4.97,97.32-22.95
			c11.73-7.45,22.22-17.09,32.47-26.45c8.75-8,16.29-16.68,23.4-26.19c7.16-9.57,12.92-20.1,18.13-30.83
			c9.01-18.53,16.97-37.69,24.17-56.99c27.71-74.22,41.08-154.12,44.03-233.12c0.29-7.66,0.46-15.33,0.68-22.99
			c0.25-8.51,0.04-17.78-2.45-25.93c-2.01-6.58-5.35-13.56-10.47-18.36c-4.1-3.84-8.89-6.76-13.89-9.25
			c-7.72-3.84-15.01-5.47-23.31-7.3c-42.21-9.35-85.72-14.18-128.95-13.94c-20.08,0.11-40.15,1.35-60.1,3.66
			c-8.22,0.95-15.14,2.72-21.21,8.79c-5.2,5.2-9.12,13.74-8.79,21.21c0.35,7.76,2.9,15.81,8.79,21.21
			c5.47,5.02,13.49,9.68,21.21,8.79c45.16-5.22,90.84-4.8,135.9,1.19c-2.66-0.36-5.32-0.71-7.98-1.07
			c11.84,1.61,23.64,3.57,35.36,5.94c5.52,1.12,11,2.36,16.49,3.59c2.63,0.59,5.34,0.98,7.84,2c-2.39-1.01-4.78-2.02-7.17-3.02
			c3.03,1.33,6.37,2.91,9,4.91c-2.02-1.56-4.05-3.13-6.07-4.69c0.48,0.44,0.87,0.87,1.27,1.37c-1.56-2.02-3.13-4.05-4.69-6.07
			c0.52,0.77,0.94,1.55,1.31,2.39c-1.01-2.39-2.02-4.78-3.02-7.17c0.79,2.01,1.24,4.08,1.56,6.21c-0.36-2.66-0.71-5.32-1.07-7.98
			c0.87,6.79,0.38,13.59,0.21,20.4c-0.26,9.93-0.52,19.86-1.06,29.78c-1.14,20.99-3.12,41.92-5.91,62.76
			c0.36-2.66,0.71-5.32,1.07-7.98c-6.26,46.22-16.53,91.97-31.86,136.05c-4.38,12.6-9.23,25.03-14.41,37.32
			c1.01-2.39,2.02-4.78,3.02-7.17c-8.36,19.75-17.16,39.93-30.26,57.09c1.56-2.02,3.13-4.05,4.69-6.07
			c-10.43,13.5-23.91,25.48-37.34,35.93c2.02-1.56,4.05-3.13,6.07-4.69c-6.85,5.22-14.32,9.44-22.22,12.85
			c2.39-1.01,4.78-2.02,7.17-3.02c-11.42,4.82-23.45,7.86-35.71,9.55c2.66-0.36,5.32-0.71,7.98-1.07
			c-15.92,2.09-32.03,1.91-47.93-0.23c2.66,0.36,5.32,0.71,7.98,1.07c-14.96-2.09-29.63-5.9-43.58-11.7
			c2.39,1.01,4.78,2.02,7.17,3.02c-11.66-4.93-22.34-11.33-32.38-19.03c2.02,1.56,4.05,3.13,6.07,4.69
			c-14.25-11.08-26.8-24.07-37.83-38.34c1.56,2.02,3.13,4.05,4.69,6.07c-16.42-21.46-29.27-45.37-39.81-70.2
			c1.01,2.39,2.02,4.78,3.02,7.17c-19.44-46.14-31.97-95.27-38.66-144.84c0.36,2.66,0.71,5.32,1.07,7.98
			c-5.6-42.16-6.84-84.87-3.67-127.28c0.9-12.03,2.16-24.03,3.75-35.98c-0.36,2.66-0.71,5.32-1.07,7.98
			c7.19-53.27,21.25-105.51,42.11-155.07c-1.01,2.39-2.02,4.78-3.02,7.17c13.31-31.42,28.82-62.05,49.71-89.16
			c-1.56,2.02-3.13,4.05-4.69,6.07c12.81-16.49,27.35-31.59,43.87-44.39c-2.02,1.56-4.05,3.13-6.07,4.69
			c12.36-9.48,25.71-17.55,40.06-23.64c-2.39,1.01-4.78,2.02-7.17,3.02c11.96-4.99,24.43-8.51,37.27-10.34
			c-2.66,0.36-5.32,0.71-7.98,1.07c12.18-1.63,24.49-1.76,36.68-0.2c-2.66-0.36-5.32-0.71-7.98-1.07
			c11.28,1.53,22.26,4.51,32.77,8.88c-2.39-1.01-4.78-2.02-7.17-3.02c11.56,4.9,22.33,11.38,32.27,19.04
			c-2.02-1.56-4.05-3.13-6.07-4.69c13.13,10.24,24.63,22.36,34.82,35.51c-1.56-2.02-3.13-4.05-4.69-6.07
			c17.18,22.35,30.58,47.39,41.54,73.3c-1.01-2.39-2.02-4.78-3.02-7.17c4.08,9.7,7.82,19.54,11.24,29.49
			c2.56,7.43,6.86,13.87,13.79,17.93c6.43,3.76,15.91,5.36,23.12,3.02c7.26-2.35,14.26-6.85,17.93-13.79
			C521.54,210.26,523.55,201.64,520.93,194.02L520.93,194.02z"/>
	</g>
</g>
</svg>
