<?xml version="1.0" encoding="utf-8"?>
<!-- Generator: Adobe Illustrator 25.3.1, SVG Export Plug-In . SVG Version: 6.00 Build 0)  -->
<svg version="1.1" id="Layer_1" xmlns="http://www.w3.org/2000/svg" xmlns:xlink="http://www.w3.org/1999/xlink" x="0px" y="0px"
	 viewBox="0 0 595.28 841.89" style="enable-background:new 0 0 595.28 841.89;" xml:space="preserve">
<g>
	<g>
		<path d="M91.76,33c0.95,101.31,2.82,202.62,5.62,303.9c2.8,101.28,6.52,202.53,11.17,303.74c2.61,56.8,5.51,113.59,8.7,170.36
			c0.45,7.96,3.04,15.47,8.79,21.21c5.2,5.2,13.74,9.12,21.21,8.79c7.76-0.35,15.81-2.9,21.21-8.79c5.21-5.68,9.23-13.26,8.79-21.21
			c-5.68-101.16-10.44-202.37-14.28-303.61c-3.84-101.24-6.75-202.52-8.74-303.82c-1.12-56.85-1.94-113.71-2.47-170.57
			c-0.15-15.69-13.69-30.73-30-30C105.63,3.72,91.6,16.18,91.76,33L91.76,33z"/>
	</g>
</g>
<g>
	<g>
		<path d="M129.17,384.83c13.55-1.43,27.16-0.46,40.62,1.34c-2.66-0.36-5.32-0.71-7.98-1.07c9.17,1.24,18.29,2.85,27.42,4.35
			c11.52,1.89,23.09,3.5,34.67,5c18.28,2.36,36.64,4.06,55.03,5.09c36.8,2.08,73.74,1.51,110.45-1.71
			c16.07-1.41,32.37-4.34,48.51-2.21c-2.66-0.36-5.32-0.71-7.98-1.07c4.55,0.63,9.02,1.68,13.26,3.46
			c-2.39-1.01-4.78-2.02-7.17-3.02c2.62,1.13,5.09,2.53,7.35,4.27c-2.02-1.56-4.05-3.13-6.07-4.69c1.81,1.43,3.43,3.04,4.86,4.86
			c-1.56-2.02-3.13-4.05-4.69-6.07c1.03,1.35,1.93,2.77,2.72,4.28c1.89,3.5,4.46,6.3,7.73,8.42c2.9,2.65,6.3,4.44,10.2,5.37
			c3.99,1.25,7.98,1.43,11.96,0.54c3.99-0.18,7.71-1.37,11.15-3.56c6.41-4.13,12.04-10.28,13.79-17.93
			c0.36-2.66,0.71-5.32,1.07-7.98c-0.02-5.42-1.38-10.46-4.1-15.14c-4.88-9.27-13.24-17.49-22.39-22.55
			c-3.34-1.85-6.97-3.18-10.48-4.64c-1.49-0.62-2.99-1.16-4.53-1.62c-5.43-1.62-11.12-2.18-16.7-2.9
			c-14.13-1.82-28.21,0.29-42.28,1.64c-37.45,3.59-75.16,4.42-112.74,2.5c-21.03-1.08-42.02-3.03-62.89-5.82
			c2.66,0.36,5.32,0.71,7.98,1.07c-11.87-1.6-23.68-3.58-35.49-5.52c-14.22-2.33-28.57-4.59-42.99-5.21
			c-6.78-0.29-13.57-0.15-20.31,0.56c-4.13-0.16-7.98,0.71-11.56,2.58c-3.72,1.21-6.94,3.28-9.65,6.2c-2.93,2.72-4.99,5.94-6.2,9.65
			c-1.88,3.58-2.74,7.43-2.58,11.56c0.35,7.76,2.9,15.81,8.79,21.21c2.02,1.56,4.05,3.13,6.07,4.69
			C118.71,383.45,123.76,384.81,129.17,384.83L129.17,384.83z"/>
	</g>
</g>
<g>
	<g>
		<path d="M426.66,38c2.68,44.52,6.21,88.97,9.04,133.48c2.73,42.97,5.3,86.11,4.54,129.18c-0.94,52.84-2.91,105.65-3.63,158.49
			c-0.76,55.32-1.05,110.64-1.15,165.96c-0.1,55.13-0.01,110.26,0.01,165.38c0,6.84,0,13.67,0,20.51c0,15.69,13.8,30.73,30,30
			c16.25-0.73,30-13.18,30-30c0-55.1-0.1-110.19-0.04-165.29c0.06-55.36,0.28-110.72,0.92-166.07
			c0.64-54.56,1.69-109.12,3.46-163.66c1.37-42.43-0.53-84.84-3.04-127.2c-2.68-45.24-6.24-90.42-9.16-135.64
			c-0.33-5.05-0.64-10.1-0.95-15.15c-0.48-7.97-3.02-15.45-8.79-21.21c-5.2-5.2-13.74-9.12-21.21-8.79
			c-7.76,0.35-15.81,2.9-21.21,8.79C430.25,22.45,426.18,30.06,426.66,38L426.66,38z"/>
	</g>
</g>
</svg>
