<?xml version="1.0" encoding="utf-8"?>
<!-- Generator: Adobe Illustrator 25.3.1, SVG Export Plug-In . SVG Version: 6.00 Build 0)  -->
<svg version="1.1" id="Layer_1" xmlns="http://www.w3.org/2000/svg" xmlns:xlink="http://www.w3.org/1999/xlink" x="0px" y="0px"
	 viewBox="0 0 595.28 841.89" style="enable-background:new 0 0 595.28 841.89;" xml:space="preserve">
<g>
	<g>
		<path d="M249.83,64.87c-0.12,96.68,0.83,193.36,2.87,290.01c2.04,96.66,5.17,193.29,9.38,289.88
			c2.36,54.21,5.07,108.4,8.12,162.57c0.45,7.96,3.04,15.47,8.79,21.21c5.2,5.2,13.74,9.12,21.21,8.79
			c7.76-0.35,15.81-2.9,21.21-8.79c5.21-5.68,9.23-13.26,8.79-21.21c-5.43-96.53-9.78-193.11-13.04-289.73
			c-3.26-96.62-5.44-193.28-6.53-289.95c-0.61-54.25-0.88-108.51-0.81-162.77c0.01-7.69-3.35-15.78-8.79-21.21
			c-5.2-5.2-13.74-9.12-21.21-8.79C263.56,35.6,249.85,48.05,249.83,64.87L249.83,64.87z"/>
	</g>
</g>
<g>
	<g>
		<path d="M165.99,833.33c16.28,2.09,32.64,3.58,49.03,4.61c16.64,1.04,33.3,1.62,49.96,1.89c16.89,0.27,33.78,0.22,50.67-0.01
			c17.05-0.23,34.09-0.63,51.13-1.07c17.12-0.44,34.24-0.92,51.36-1.29c2.13-0.05,4.26-0.09,6.39-0.14
			c4.13,0.16,7.98-0.71,11.56-2.58c3.72-1.21,6.94-3.28,9.65-6.2c2.93-2.72,4.99-5.94,6.2-9.65c1.88-3.58,2.74-7.43,2.58-11.56
			c-0.36-2.66-0.71-5.32-1.07-7.98c-1.43-5.08-4-9.49-7.72-13.24c-2.02-1.56-4.05-3.13-6.07-4.69c-4.68-2.71-9.73-4.08-15.14-4.1
			c-17.13,0.35-34.25,0.82-51.37,1.26c-17.06,0.45-34.11,0.87-51.17,1.14c-16.91,0.27-33.83,0.38-50.74,0.18
			c-16.7-0.19-33.39-0.67-50.07-1.61c-16.42-0.92-32.82-2.27-49.16-4.23c-2.01-0.24-4.03-0.49-6.04-0.75
			c-4.13-0.16-7.98,0.71-11.56,2.58c-3.72,1.21-6.94,3.28-9.65,6.2c-2.93,2.72-4.99,5.94-6.2,9.65c-1.88,3.58-2.74,7.43-2.58,11.56
			c0.36,2.66,0.71,5.32,1.07,7.98c1.43,5.08,4,9.49,7.72,13.24c2.02,1.56,4.05,3.13,6.07,4.69
			C155.53,831.95,160.57,833.31,165.99,833.33L165.99,833.33z"/>
	</g>
</g>
<g>
	<g>
		<path d="M149,69.9c16.8-1.73,33.64-2.98,50.5-3.86c17.53-0.92,35.08-1.45,52.63-1.69c17.81-0.24,35.62-0.18,53.42,0.13
			c17.71,0.3,35.41,0.85,53.11,1.6c16.99,0.72,33.98,1.63,50.95,2.71c2.04,0.13,4.07,0.26,6.11,0.4c4.13,0.16,7.98-0.71,11.56-2.58
			c3.72-1.21,6.94-3.28,9.65-6.2c2.93-2.72,4.99-5.94,6.2-9.65c1.88-3.58,2.74-7.43,2.58-11.56c-0.36-2.66-0.71-5.32-1.07-7.98
			c-1.43-5.08-4-9.49-7.72-13.24c-2.02-1.56-4.05-3.13-6.07-4.69c-4.68-2.71-9.73-4.08-15.14-4.1c-16.86-1.11-33.74-2.06-50.62-2.83
			c-17.56-0.8-35.13-1.39-52.7-1.76c-17.81-0.37-35.62-0.5-53.43-0.33c-17.69,0.16-35.38,0.62-53.05,1.45
			C188.96,6.52,172,7.67,155.09,9.3c-2.03,0.2-4.06,0.4-6.09,0.61c-4.13-0.16-7.98,0.71-11.56,2.58c-3.72,1.21-6.94,3.28-9.65,6.2
			c-2.93,2.72-4.99,5.94-6.2,9.65c-1.88,3.58-2.74,7.43-2.58,11.56c0.36,2.66,0.71,5.32,1.07,7.98c1.43,5.08,4,9.49,7.72,13.24
			c2.02,1.56,4.05,3.13,6.07,4.69C138.54,68.52,143.58,69.89,149,69.9L149,69.9z"/>
	</g>
</g>
</svg>
