<?xml version="1.0" encoding="utf-8"?>
<!-- Generator: Adobe Illustrator 25.3.1, SVG Export Plug-In . SVG Version: 6.00 Build 0)  -->
<svg version="1.1" id="Layer_1" xmlns="http://www.w3.org/2000/svg" xmlns:xlink="http://www.w3.org/1999/xlink" x="0px" y="0px"
	 viewBox="0 0 595.28 841.89" style="enable-background:new 0 0 595.28 841.89;" xml:space="preserve">
<g>
	<g>
		<path d="M45,570c0.02,16.47,0.8,32.61,3.24,48.9c2.03,13.52,4.36,27.04,7.24,40.4c7,32.53,17.79,65.6,36.19,93.59
			c18.15,27.63,43.08,50.5,72.71,65.34c35.16,17.61,75.4,25.52,114.09,15.85c19.86-4.96,37.63-14.97,53.18-28.09
			c8.23-6.95,14.85-15.2,21.31-23.78c6.05-8.03,11.62-16.44,16.77-25.08c11.36-19.09,20.74-39.65,27.64-60.77
			c6.62-20.23,9.52-41.3,12.42-62.32c12.5-90.84,15.32-182.33,15.15-273.92c-0.17-90.29-2.75-180.6,0.04-270.87
			c0.33-10.82,0.75-21.64,1.25-32.46c0.73-15.7-14.32-30.7-30-30c-16.87,0.76-29.22,13.18-30,30c-3.4,73.62-2.63,147.34-1.89,221.01
			c0.74,73.62,1.48,147.31-2.08,220.87c-2,41.2-5.37,82.33-10.83,123.22c0.36-2.66,0.71-5.32,1.07-7.98
			c-2.03,15.09-3.94,30.33-7.18,45.22c-3.02,13.87-7.51,27.38-12.99,40.46c1.01-2.39,2.02-4.78,3.02-7.17
			c-9.22,21.73-21.11,42.53-35.53,61.23c1.56-2.02,3.13-4.05,4.69-6.07c-5.42,6.89-11.54,13.11-18.44,18.52
			c2.02-1.56,4.05-3.13,6.07-4.69c-6.81,5.23-14.18,9.56-22.08,12.93c2.39-1.01,4.78-2.02,7.17-3.02
			c-8.4,3.49-17.16,5.83-26.17,7.09c2.66-0.36,5.32-0.71,7.98-1.07c-10.87,1.43-21.82,1.28-32.68-0.17
			c2.66,0.36,5.32,0.71,7.98,1.07c-12.76-1.81-25.16-5.38-37.05-10.34c2.39,1.01,4.78,2.02,7.17,3.02
			c-13.33-5.67-25.93-12.99-37.41-21.83c2.02,1.56,4.05,3.13,6.07,4.69c-10.2-7.95-19.34-17.11-27.27-27.33
			c1.56,2.02,3.13,4.05,4.69,6.07c-9.54-12.44-17.13-26.17-23.26-40.57c1.01,2.39,2.02,4.78,3.02,7.17
			c-13.09-31.15-19.91-64.92-24.51-98.28c0.36,2.66,0.71,5.32,1.07,7.98c-1.73-12.85-1.86-25.89-1.87-38.83
			c-0.01-7.7-3.34-15.77-8.79-21.21c-5.2-5.2-13.74-9.12-21.21-8.79C58.76,540.73,44.98,553.18,45,570L45,570z"/>
	</g>
</g>
<g>
	<g>
		<path d="M240,62c18.92-0.33,37.85-0.43,56.77-0.45c20.85-0.02,41.7,0.08,62.55,0.2c21.57,0.13,43.13,0.3,64.7,0.44
			c21.09,0.14,42.18,0.25,63.27,0.26c19.16,0.01,38.33-0.06,57.49-0.34c2.19-0.03,4.39-0.07,6.58-0.11
			c4.13,0.16,7.98-0.71,11.56-2.58c3.72-1.21,6.94-3.28,9.65-6.2c2.93-2.72,4.99-5.94,6.2-9.65c1.88-3.58,2.74-7.43,2.58-11.56
			c-0.36-2.66-0.71-5.32-1.07-7.98c-1.43-5.08-4-9.49-7.72-13.24c-5.81-5.33-13.14-8.93-21.21-8.79
			c-18.92,0.33-37.85,0.43-56.77,0.45c-20.85,0.02-41.7-0.08-62.55-0.2c-21.57-0.13-43.13-0.3-64.7-0.44
			c-21.09-0.14-42.18-0.25-63.27-0.26c-19.16-0.01-38.33,0.06-57.49,0.34C244.39,1.93,242.19,1.96,240,2
			c-4.13-0.16-7.98,0.71-11.56,2.58c-3.72,1.21-6.94,3.28-9.65,6.2c-2.93,2.72-4.99,5.94-6.2,9.65c-1.88,3.58-2.74,7.43-2.58,11.56
			c0.36,2.66,0.71,5.32,1.07,7.98c1.43,5.08,4,9.49,7.72,13.24C224.6,58.55,231.92,62.14,240,62L240,62z"/>
	</g>
</g>
</svg>
