<?xml version="1.0" encoding="utf-8"?>
<!-- Generator: Adobe Illustrator 25.3.1, SVG Export Plug-In . SVG Version: 6.00 Build 0)  -->
<svg version="1.1" id="Layer_1" xmlns="http://www.w3.org/2000/svg" xmlns:xlink="http://www.w3.org/1999/xlink" x="0px" y="0px"
	 viewBox="0 0 595.28 841.89" style="enable-background:new 0 0 595.28 841.89;" xml:space="preserve">
<g>
	<g>
		<path d="M93,35c1.75,49.87,2.97,99.76,3.87,149.66c0.92,50.7,1.52,101.4,2,152.11c0.49,51,0.87,101.99,1.33,152.99
			c0.46,50.77,1.01,101.54,1.85,152.31c0.83,50.03,1.94,100.05,3.57,150.06c0.2,6.29,0.42,12.59,0.64,18.88
			c0.28,7.86,3.16,15.58,8.79,21.21c5.2,5.2,13.74,9.12,21.21,8.79c15.78-0.71,30.59-13.2,30-30c-1.75-49.87-2.97-99.76-3.87-149.66
			c-0.92-50.7-1.52-101.4-2-152.11c-0.49-51-0.87-101.99-1.33-152.99c-0.46-50.77-1.01-101.54-1.85-152.31
			c-0.83-50.03-1.94-100.05-3.57-150.06c-0.2-6.29-0.42-12.59-0.64-18.88c-0.28-7.86-3.16-15.58-8.79-21.21
			C139.01,8.58,130.47,4.67,123,5C107.22,5.71,92.41,18.2,93,35L93,35z"/>
	</g>
</g>
<g>
	<g>
		<path d="M162.17,435.96c13.02-23.98,26.78-47.55,41.28-70.66c14.5-23.11,29.72-45.77,45.63-67.93
			c8.95-12.46,18.12-24.76,27.49-36.9c-1.56,2.02-3.13,4.05-4.69,6.07c23.25-30.08,47.8-59.17,73.56-87.13
			c25.69-27.88,52.59-54.65,80.61-80.19c15.79-14.4,31.94-28.4,48.41-42c2.93-2.72,4.99-5.94,6.2-9.65
			c1.88-3.58,2.74-7.43,2.58-11.56c0.16-4.13-0.71-7.98-2.58-11.56c-1.21-3.72-3.28-6.94-6.2-9.65c-5.72-5.25-13.22-9.14-21.21-8.79
			c-2.66,0.36-5.32,0.71-7.98,1.07c-5.08,1.43-9.49,4-13.24,7.72c-25.18,20.79-49.58,42.51-73.13,65.13
			c-23.63,22.69-46.4,46.28-68.27,70.68c-23.36,26.08-45.51,53.15-66.88,80.88c-19.93,25.86-38.9,52.47-56.84,79.75
			c-17.94,27.28-34.87,55.23-50.71,83.78c-1.97,3.55-3.92,7.1-5.85,10.66c-3.79,6.98-5.16,15.37-3.02,23.12
			c0.93,3.9,2.72,7.3,5.37,10.2c2.12,3.27,4.92,5.84,8.42,7.73c6.96,3.68,15.4,5.52,23.12,3.02
			C151.55,447.38,158.41,442.88,162.17,435.96L162.17,435.96z"/>
	</g>
</g>
<g>
	<g>
		<path d="M221.4,341.76c5.75,3.48,11.28,7.28,16.61,11.38c-2.02-1.56-4.05-3.13-6.07-4.69c14.03,10.88,26.36,23.73,37.23,37.75
			c-1.56-2.02-3.13-4.05-4.69-6.07c17.02,22.1,30.38,46.76,42.01,72.04c3.36,7.31,6.58,14.69,9.71,22.11
			c-1.01-2.39-2.02-4.78-3.02-7.17c8.4,19.95,16.19,40.16,24.11,60.31c9.29,23.61,18.58,47.22,27.87,70.82
			c18.52,47.06,37.04,94.12,55.56,141.19c10.44,26.52,20.87,53.04,31.31,79.56c0.93,3.9,2.72,7.3,5.37,10.2
			c2.12,3.27,4.92,5.84,8.42,7.73c6.43,3.76,15.91,5.36,23.12,3.02c7.26-2.35,14.26-6.85,17.93-13.79
			c3.54-6.7,5.93-15.74,3.02-23.12c-15.02-38.17-30.04-76.34-45.06-114.51S434.76,612.17,419.74,574
			c-14.22-36.13-28.15-72.39-42.74-108.37c-12.75-31.45-26.21-62.91-44.16-91.81c-9.38-15.11-20.04-29.59-31.88-42.87
			c-11.72-13.13-25.13-24.61-39.55-34.68c-3.17-2.21-6.42-4.32-9.73-6.32c-6.59-4-15.73-5.06-23.12-3.02
			c-6.96,1.92-14.5,7.3-17.93,13.79c-3.68,6.96-5.52,15.4-3.02,23.12C210.04,331.34,214.54,337.6,221.4,341.76L221.4,341.76z"/>
	</g>
</g>
</svg>
