<?xml version="1.0" encoding="utf-8"?>
<!-- Generator: Adobe Illustrator 25.3.1, SVG Export Plug-In . SVG Version: 6.00 Build 0)  -->
<svg version="1.1" id="Layer_1" xmlns="http://www.w3.org/2000/svg" xmlns:xlink="http://www.w3.org/1999/xlink" x="0px" y="0px"
	 viewBox="0 0 595.28 841.89" style="enable-background:new 0 0 595.28 841.89;" xml:space="preserve">
<g>
	<g>
		<path d="M92.85,34c-1.18,25.99-2.36,51.99-3.53,77.98c-0.97,21.45-2.24,42.91-2.59,64.38c-0.37,22.38-0.6,44.77-0.12,67.15
			c0.7,32.44,2.95,64.79,2.99,97.26c0.09,72.77-1.37,145.53-2.58,218.29c-1.21,72.4-2.21,144.82-1.15,217.23
			c0.13,8.95,0.3,17.9,0.49,26.85c0.17,7.8,3.23,15.65,8.79,21.21c5.2,5.2,13.74,9.12,21.21,8.79c15.96-0.71,30.37-13.19,30-30
			c-1.59-72.25-0.91-144.52,0.21-216.77c1.13-72.8,2.72-145.6,2.99-218.41c0.13-36.4-0.6-72.67-2.43-109.02
			c-1.15-22.79-0.87-45.67-0.61-68.47c0.25-21.8,1.21-43.49,2.19-65.27c1.35-29.78,2.7-59.55,4.05-89.33
			c0.03-0.62,0.06-1.24,0.08-1.87c0.71-15.7-14.31-30.7-30-30C105.99,4.76,93.61,17.18,92.85,34L92.85,34z"/>
	</g>
</g>
<g>
	<g>
		<path d="M116.36,833.14c21.21,0.83,42.44,1.33,63.67,1.71c23.59,0.42,47.18,0.68,70.78,0.89c24.45,0.22,48.89,0.38,73.34,0.59
			c23.88,0.2,47.75,0.44,71.63,0.82c21.6,0.35,43.2,0.81,64.79,1.58c2.43,0.09,4.86,0.18,7.3,0.27c4.13,0.16,7.98-0.71,11.56-2.58
			c3.72-1.21,6.94-3.28,9.65-6.2c2.93-2.72,4.99-5.94,6.2-9.65c1.88-3.58,2.74-7.43,2.58-11.56c-0.35-7.76-2.9-15.81-8.79-21.21
			c-2.02-1.56-4.05-3.13-6.07-4.69c-4.68-2.71-9.73-4.08-15.14-4.1c-21.21-0.83-42.44-1.33-63.67-1.71
			c-23.59-0.42-47.18-0.68-70.78-0.89c-24.45-0.22-48.89-0.38-73.34-0.59c-23.88-0.2-47.75-0.44-71.63-0.82
			c-21.6-0.35-43.2-0.81-64.79-1.58c-2.43-0.09-4.86-0.18-7.3-0.27c-4.13-0.16-7.98,0.71-11.56,2.58c-3.72,1.21-6.94,3.28-9.65,6.2
			c-2.93,2.72-4.99,5.94-6.2,9.65c-1.88,3.58-2.74,7.43-2.58,11.56c0.35,7.76,2.9,15.81,8.79,21.21c2.02,1.56,4.05,3.13,6.07,4.69
			C105.9,831.76,110.95,833.13,116.36,833.14L116.36,833.14z"/>
	</g>
</g>
</svg>
