<?xml version="1.0" encoding="utf-8"?>
<!-- Generator: Adobe Illustrator 25.3.1, SVG Export Plug-In . SVG Version: 6.00 Build 0)  -->
<svg version="1.1" id="Layer_1" xmlns="http://www.w3.org/2000/svg" xmlns:xlink="http://www.w3.org/1999/xlink" x="0px" y="0px"
	 viewBox="0 0 595.28 841.89" style="enable-background:new 0 0 595.28 841.89;" xml:space="preserve">
<g>
	<g>
		<path d="M94,811c-1.07-50.98-1.99-101.96-2.84-152.94c-0.96-57.28-1.83-114.56-2.63-171.84c-0.73-52.73-1.4-105.47-1.94-158.21
			c-0.38-37.26-0.76-74.53-0.8-111.8c-0.01-9.56-0.04-19.12,0.17-28.68c0.74-32.6-0.23-65.29,1.79-97.85
			c0.54-8.74,1.34-17.46,2.48-26.14c-0.36,2.66-0.71,5.32-1.07,7.98c1.5-11,3.6-21.9,6.77-32.55c-19.29,0-38.57,0-57.86,0
			C68.66,121.82,99,204.76,129.24,287.73c28.98,79.49,57.89,159.01,86.97,238.46c17.43,47.64,34.93,95.26,52.5,142.85
			c2.33,6.31,5.33,11.39,10.75,15.58c5.06,3.91,11.61,6.74,18.18,6.44c13.26-0.59,25.28-8.89,28.93-22.02
			c23.72-85.32,53.39-168.75,85.81-251.11c31.08-78.96,64.29-157.08,94.95-236.21c18.28-47.18,35.64-94.71,51.56-142.75
			c-19.29,0-38.57,0-57.86,0c0.16,1.06,0.3,2.12,0.45,3.18c-0.36-2.66-0.71-5.32-1.07-7.98c5.43,40.94,5.07,82.86,5.06,124.08
			c0,42.92-0.91,85.83-2.06,128.73c-1.49,55.31-2.43,110.62-2.49,165.96c-0.06,52.54,0.52,105.08,0.65,157.62
			c0.14,58.43-0.44,116.86-2.12,175.27c-0.24,8.39-0.5,16.78-0.78,25.17c-0.52,15.7,14.17,30.71,30,30c16.7-0.75,29.44-13.18,30-30
			c2.01-60.6,2.92-121.23,2.92-181.87c0-53-0.61-106-0.67-159c-0.07-58.21,0.67-116.4,2.26-174.58c1.14-41.62,2.09-83.26,2.27-124.9
			c0.18-43,0.51-86.5-4.17-129.3c-0.67-6.12-1.49-12.23-2.39-18.32c-1.01-2.39-2.02-4.78-3.02-7.17c-1.89-3.5-4.46-6.3-7.73-8.42
			c-5.06-3.91-11.61-6.74-18.18-6.44c-13.72,0.61-24.61,8.99-28.93,22.02c-27.89,84.15-60.44,166.59-93.86,248.67
			c-31.98,78.54-64.38,156.93-92.67,236.9c-16.86,47.65-32.25,95.81-45.78,144.5c19.29,0,38.57,0,57.86,0
			c-30.59-82.85-60.93-165.78-91.17-248.76c-28.98-79.49-57.89-159.01-86.97-238.46c-17.43-47.64-34.93-95.26-52.5-142.85
			C93.6,16.72,90.6,11.63,85.18,7.44C80.12,3.53,73.57,0.71,67,1C53.57,1.6,41.97,9.93,38.07,23.02
			C27.15,59.69,26.67,99.2,26.46,137.16c-0.11,20.49-0.51,40.98-0.64,61.47c-0.21,32.99,0.17,66,0.47,98.99
			c0.47,51.96,1.11,103.91,1.8,155.87c0.78,59.03,1.66,118.05,2.62,177.07c0.89,54.49,1.84,108.98,2.94,163.47
			c0.12,5.66,0.23,11.32,0.35,16.97c0.16,7.79,3.23,15.66,8.79,21.21c5.2,5.2,13.74,9.12,21.21,8.79
			C79.97,840.28,94.35,827.81,94,811L94,811z"/>
	</g>
</g>
</svg>
