<?xml version="1.0" standalone="yes"?><svg xmlns="http://www.w3.org/2000/svg" xmlns:xlink="http://www.w3.org/1999/xlink" version="1.1" x="0px" y="0px" viewBox="0 0 66 82.5" enable-background="new 0 0 66 66" xml:space="preserve" style="zoom: 1;"><g><path d="M25.941,34.1409H5.6309C3.0773,34.1409,1,36.2182,1,38.7718v20.3096c0,2.5536,2.0773,4.6309,4.6309,4.6309H25.941 c2.5536,0,4.6309-2.0773,4.6309-4.6309V38.7718C30.5718,36.2182,28.4945,34.1409,25.941,34.1409z M28.9603,59.0813 c0,1.665-1.3544,3.0194-3.0194,3.0194H5.6309c-1.665,0-3.0194-1.3544-3.0194-3.0194V38.7718c0-1.665,1.3544-3.0194,3.0194-3.0194 H25.941c1.665,0,3.0194,1.3544,3.0194,3.0194V59.0813z"></path><path d="M19.1909,47.5797c1.4157-0.6292,2.1916-1.4174,2.1916-3.2135c0-2.2066-1.4888-3.9374-5.2561-3.9374h-5.7891v14.8766h6.5119 c3.8725,0,5.3642-1.9017,5.3642-4.1294C22.2134,49.2674,21.006,47.9721,19.1909,47.5797z M12.8489,42.7485h3.2135 c1.5986,0,2.7026,0.4152,2.7026,2.0007c0,1.2343-0.9075,1.8517-2.7235,1.8517h-3.1925V42.7485z M16.7863,52.9859h-3.9374v-4.0654 h3.6174c2.114,0,3.1715,0.6599,3.1715,1.9797C19.6378,52.601,18.4998,52.9859,16.7863,52.9859z"></path><path d="M43.1068,31.8591c2.5536,0,4.6309-2.0773,4.6309-4.6303V6.9181c0-2.5531-2.0773-4.6303-4.6309-4.6303H22.7967 c-2.5536,0-4.6309,2.0773-4.6309,4.6303v20.3106c0,2.5531,2.0773,4.6303,4.6309,4.6303H43.1068z M19.7773,27.2287V6.9181 c0-1.6644,1.3544-3.0189,3.0194-3.0189h20.3101c1.665,0,3.0194,1.3544,3.0194,3.0189v20.3106c0,1.6644-1.3544,3.0189-3.0194,3.0189 H22.7967C21.1317,30.2476,19.7773,28.8932,19.7773,27.2287z"></path><path d="M29.2279,20.0684h7.4488l1.4898,3.384h2.6816l-6.555-14.8766h-2.6816l-6.555,14.8766h2.6816L29.2279,20.0684z M32.9523,11.6193l2.7036,6.1295h-5.4062L32.9523,11.6193z"></path><path d="M60.3692,34.1409H40.0591c-2.5536,0-4.6309,2.0773-4.6309,4.6309v20.3096c0,2.5536,2.0773,4.6309,4.6309,4.6309h20.3101 c2.5536,0,4.6309-2.0773,4.6309-4.6309V38.7718C65,36.2182,62.9227,34.1409,60.3692,34.1409z M63.3885,59.0813 c0,1.665-1.3544,3.0194-3.0194,3.0194H40.0591c-1.665,0-3.0194-1.3544-3.0194-3.0194V38.7718c0-1.665,1.3545-3.0194,3.0194-3.0194 h20.3101c1.665,0,3.0194,1.3544,3.0194,3.0194V59.0813z"></path><path d="M51.4274,42.5355 c1.8002,0 2.9077,0.5571 4.2353,1.8307 l1.5957,-1.7452 c-1.5464,-1.7027 -3.4726,-2.5541 -5.7786,-2.5541 c-4.6822,0 -7.9912,3.3453 -7.9912,7.7468 c0,4.5294 3.3852,7.6618 7.8213,7.6618 c2.2493,0 4.1608,-0.8718 5.7356,-2.6176 l-1.6167,-1.6597 c-1.5372,1.4379 -2.6734,1.8297 -4.1934,1.8297 c-2.6809,0 -5.1292,-2.1563 -5.1292,-5.3096 C46.1063,44.612 48.4818,42.5355 51.4274,42.5355 "></path></g></svg>