<?xml version="1.0" encoding="UTF-8"?>
<svg width="200" height="200" xmlns="http://www.w3.org/2000/svg" xmlns:xlink="http://www.w3.org/1999/xlink">
<path d="M 171.78 96.72 L 123.08 43.16 C 121.73 41.67 119.61 41.17 117.72 41.89 C 115.85 42.61 114.61 44.41 114.61 46.43 L 114.61 75.65 L 31.82 75.65 C 29.14 75.65 26.95 77.83 26.95 80.52 L 26.95 119.48 C 26.95 122.16 29.14 124.35 31.82 124.35 L 114.61 124.35 L 114.61 153.56 C 114.61 155.58 115.85 157.38 117.72 158.11 C 118.29 158.33 118.89 158.43 119.48 158.43 C 120.82 158.43 122.14 157.87 123.08 156.84 L 171.78 103.27 C 173.47 101.42 173.47 98.58 171.78 96.72 Z M 171.78 96.72" transform="rotate(180.00,100.00,100.00)" stroke="none" fill="black"  />
</svg>