<?xml version="1.0" standalone="yes"?><svg xmlns="http://www.w3.org/2000/svg" xmlns:xlink="http://www.w3.org/1999/xlink" version="1.1" x="0px" y="0px" viewBox="0 0 16 20" style="enable-background:new 0 0 16 16;zoom: 1;" xml:space="preserve"><path d="M14.87,7.164l-5-5.5C9.731,1.511,9.513,1.46,9.319,1.534C9.127,1.608,9,1.793,9,2v3H0.5C0.224,5,0,5.224,0,5.5v4 C0,9.776,0.224,10,0.5,10H9v3c0,0.207,0.127,0.392,0.319,0.467C9.378,13.489,9.439,13.5,9.5,13.5c0.138,0,0.273-0.058,0.37-0.164 l5-5.5C15.043,7.646,15.043,7.354,14.87,7.164z"></path></svg>