<?xml version="1.0" encoding="UTF-8" standalone="no"?><!DOCTYPE svg PUBLIC "-//W3C//DTD SVG 1.1//EN" "http://www.w3.org/Graphics/SVG/1.1/DTD/svg11.dtd">
<svg style="fill-rule:evenodd;clip-rule:evenodd;stroke-linecap:round;stroke-linejoin:round;" xmlns:xlink="http://www.w3.org/1999/xlink" xmlns="http://www.w3.org/2000/svg" xml:space="preserve" version="1.1" viewBox="0 0 700 700">
<defs/>
<g id="Untitled">
<path d="M267.4+130.34C286.084+130.414+307.384+131.063+323.752+137.828C334.838+142.57+341.869+149.183+344.4+159.422L344.4+395.052C340.533+388.869+335.978+383.427+330.048+379.376C316.989+370.458+300.509+365.86+282.798+363.7C249.63+359.657+212.157+364.567+181.998+369.794L181.998+141.304C206.178+136.593+237.994+131.163+267.396+130.331L267.4+130.34ZM420.17+130.34C452.748+129.692+490.361+135.926+517.994+141.313L517.994+369.803C487.838+364.576+450.361+359.666+417.194+363.709C399.483+365.869+383.003+370.467+369.944+379.385C364.014+383.432+359.46+388.877+355.592+395.061L355.592+159.431C358.123+149.193+365.154+142.576+376.24+137.837C387.584+132.989+403.08+130.689+420.166+130.349L420.17+130.34ZM170.8+150.543L170.8+373.463C163.827+385.111+155.343+401.182+148.402+414.393L148.402+175.453L170.8+150.543ZM529.2+150.543L551.598+175.273L551.598+418.743C543.965+404.501+536.383+388.278+529.2+373.458L529.2+150.543ZM281.4+374.683C297.986+376.702+312.658+381.163+323.576+388.617C334.15+395.836+341.271+405.746+344.053+420.312C333.432+418.468+324.108+411.699+319.553+403.593C264.905+410.679+210.233+417.652+155.573+424.667L178.147+381.476C215.499+376.343+246.327+370.515+281.397+374.683L281.4+374.683ZM521.67+381.476L544.42+429.718C490.111+421.468+436.03+411.706+381.67+403.773C373.975+410.621+366.502+419.296+355.943+420.144C358.748+405.667+365.884+395.812+376.42+388.621C387.338+381.168+402.006+376.711+418.596+374.687C452.041+370.945+489.94+375.828+521.666+381.476L521.67+381.476Z" opacity="1" fill="#000000"/>
</g>
</svg>
