<?xml version="1.0" encoding="UTF-8" standalone="no"?> <!-- Created with Vectornator for iOS (http://vectornator.io/) --><!DOCTYPE svg PUBLIC "-//W3C//DTD SVG 1.1//EN" "http://www.w3.org/Graphics/SVG/1.1/DTD/svg11.dtd">
<svg style="fill-rule:evenodd;clip-rule:evenodd;stroke-linecap:round;stroke-linejoin:round;" xmlns:vectornator="http://vectornator.io" xmlns:xlink="http://www.w3.org/1999/xlink" xmlns="http://www.w3.org/2000/svg" xml:space="preserve" version="1.1" viewBox="0 0 100 125">
<metadata>
<vectornator:setting key="RulersVisible" value="1"/>
<vectornator:setting key="Units" value="Points"/>
<vectornator:setting key="DynamicGuides" value="1"/>
<vectornator:setting key="GuidesVisible" value="1"/>
<vectornator:setting key="CMYKEnabledKey" value="0"/>
<vectornator:setting key="SnapToGuides" value="1"/>
<vectornator:setting key="GridSpacing" value="36"/>
</metadata>
<defs/>
<g id="Untitled" vectornator:layerName="Untitled">
<path d="M12.0196+106.153C10.3414+104.074+9.21844+101.604+8.7558+98.9726C8.65341+98.3327+7.77027+97.8335+6.81035+97.9231C6.01718+97.9297+5.37192+98.5637+5.35126+99.3566C5.56462+102.695+6.67444+105.914+8.56381+108.674C13.6395+116.233+23.2481+119.307+31.7684+116.098C36.7575+114.239+40.8194+110.498+43.0828+105.679C43.376+105.053+43.6366+104.412+43.8635+103.759L44.1963+102.761L44.4395+101.942C44.7723+100.867+45.1306+99.8301+45.5402+98.8062C45.9418+97.8003+46.4078+96.8213+46.9353+95.8752C47.4985+94.8897+48.0872+93.9298+48.74+92.9827C51.4332+89.0978+54.786+85.7147+58.6464+82.9866C59.6319+82.2955+60.6431+81.6171+61.6926+81.0028L63.4332+79.9277C64.0476+79.5565+64.6364+79.1469+65.2123+78.7245C72.4037+73.6526+77.7852+66.4144+80.5711+58.0669C84.1985+46.9021+82.9145+34.722+77.0386+24.5591C71.5433+15.1177+62.4864+8.27893+51.9013+5.57811C47.1827+4.41552+42.3012+4.06066+37.464+4.52859C33.1088+4.99696+28.8591+6.17286+24.8826+8.00992C21.4244+9.61043+18.2202+11.7106+15.3729+14.243C13.0281+16.3501+10.9596+18.7455+9.21656+21.3721C9.02422+21.7582+8.99593+22.2056+9.1381+22.6128C9.28027+23.0201+9.58086+23.3526+9.9717+23.5351L9.9717+23.5351C10.5901+24.0098+11.4572+23.9831+12.0451+23.4711C13.8612+21.2891+15.913+19.3146+18.1631+17.5836C23.888+13.215+30.7768+10.6367+37.9632+10.173C42.1173+9.9523+46.2797+10.4062+50.2886+11.5169C59.1023+14.0609+66.5657+19.9618+71.0743+27.9508C73.4274+32.1229+74.8875+36.7386+75.3619+41.505L75.5283+43.3096C75.5634+43.915+75.5634+44.5218+75.5283+45.1271C75.5407+46.3409+75.4852+47.5544+75.3619+48.762C75.1051+51.1726+74.5946+53.5493+73.8389+55.8527C71.5281+62.7932+67.0959+68.8327+61.1678+73.1186C60.6815+73.4769+60.2079+73.8225+59.6959+74.1425L58.1217+75.1536C56.9313+75.8704+55.7794+76.6767+54.6531+77.483C50.2006+80.7427+46.3685+84.7741+43.3388+89.3861C42.5964+90.5125+41.9181+91.6644+41.2909+92.8291C40.6603+94.029+40.1088+95.2689+39.6398+96.5408C39.1791+97.8207+38.7951+99.0238+38.4623+100.24L38.2192+101.136L38.0144+101.84C37.8713+102.3+37.7047+102.753+37.5152+103.196C36.0023+106.659+33.2163+109.409+29.7334+110.876C26.5161+112.217+22.9326+112.398+19.5966+111.388C16.6094+110.429+13.9728+108.608+12.0196+106.153Z" opacity="1" fill="#000000"/>
<path d="M29.1574+59.59C28.9034+59.8701+28.625+60.127+28.3255+60.3579L27.8391+60.7163L27.1096+61.1899C25.1642+62.4698+23.2699+63.7497+21.606+64.9144C18.784+66.8347+16.1178+68.9745+13.6322+71.3139C13.5042+71.4419+13.837+72.2354+14.3618+73.0674C14.8865+73.8993+15.3089+74.3473+15.4497+74.3473C18.6731+73.2094+21.8015+71.8185+24.8058+70.1876C26.6616+69.2277+28.6455+68.1653+30.6549+67.0262L31.4101+66.5911L32.3828+65.9767C33.041+65.5202+33.6539+65.0016+34.2131+64.428C37.6695+60.868+38.7569+55.6308+37.0033+50.9891C35.9194+48.1975+33.8717+45.8864+31.2309+44.4743C29.0204+43.31+26.4952+42.8839+24.025+43.2584C23.0498+43.4199+22.102+43.7172+21.2093+44.1416C21.2093+43.9752+21.2093+43.8088+21.3116+43.6424C21.823+41.6318+22.6899+39.7289+23.8715+38.0236C25.1334+36.0733+26.7073+34.3437+28.5303+32.904C32.4668+29.7938+37.4267+28.273+42.43+28.642C47.6263+29.0897+52.3119+31.9479+55.0879+36.3633C57.8638+40.7787+58.4088+46.2402+56.5602+51.117C55.6935+53.4431+54.3309+55.5526+52.5669+57.299C51.7013+58.1474+50.7489+58.9024+49.7255+59.5516L47.844+60.8315C47.2425+61.2923+46.5641+61.7274+46.0394+62.1882C41.8464+65.5926+38.3927+69.8172+35.8897+74.6033C34.0338+78.1393+32.599+81.8809+31.6149+85.7512C31.4997+86.1864+32.178+86.7751+33.0995+87.0311C34.0211+87.2871+34.6482+87.2103+34.8018+86.8263C36.3419+83.4543+38.1257+80.199+40.139+77.0863C42.6882+73.1726+45.9279+69.7552+49.6999+67.0006C50.2118+66.6423+50.7494+66.2967+51.2742+65.9511L52.9508+64.9528C60.0813+60.8509+64.4945+53.2685+64.5393+45.0424C64.5841+36.8164+60.2538+29.1864+53.1684+25.007C50.0474+23.1718+46.5416+22.0894+42.9292+21.8457C33.0812+21.3072+23.7892+26.4352+18.995+35.0543C17.6317+37.4224+16.7325+40.0287+16.3456+42.7337C16.0182+45.0782+16.1136+47.4623+16.6272+49.7732C17.0677+51.6081+17.7386+53.3799+18.6238+55.0464C18.8158+55.4431+19.7374+55.4687+20.6461+55.0464C21.5548+54.624+22.0156+54.1632+21.926+53.7665C21.4331+52.2216+21.0986+50.6306+20.9277+49.018C20.9277+48.8132+20.9277+48.6084+20.9277+48.4037C22.0513+48.1427+23.2102+48.0692+24.3578+48.1861C25.745+48.3387+27.0685+48.8504+28.1975+49.6708C29.3999+50.5564+30.295+51.7961+30.7573+53.2161C31.191+54.6793+31.1097+56.2469+30.5269+57.6574C30.1919+58.3796+29.7278+59.0345+29.1574+59.59Z" opacity="1" fill="#000000"/>
<path d="M67.4393+105.142C73.2276+103.752+77.7413+99.2234+79.112+93.4306C79.6423+91.386+79.5532+89.2299+78.8561+87.2359C78.2605+87.0732+77.6409+87.0169+77.0258+87.0695C76.4934+87.0373+75.9591+87.0804+75.4387+87.1975C74.8116+88.311+74.1588+89.8213+73.3397+91.3828C71.5376+94.7676+68.7594+97.5324+65.3659+99.3182C63.8044+100.189+62.2941+100.777+61.1806+101.392C61.0524+102.014+61.0094+102.652+61.0526+103.286C61.0065+103.833+61.0629+104.385+61.219+104.911C63.2238+105.603+65.3889+105.683+67.4393+105.142Z" opacity="1" fill="#000000"/>
<path d="M73.6341+119.733C83.3623+116.967+90.9624+109.357+93.7157+99.6254C94.7396+96.1691+94.9239+92.5184+94.2533+88.9766C94.2533+88.8102+93.3958+88.6694+92.423+88.695C91.8764+88.6356+91.3239+88.724+90.8232+88.951C90.0765+91.8975+89.114+94.7851+87.9434+97.5903C84.7652+104.915+78.9163+110.755+71.5862+113.922C68.7851+115.085+65.9017+116.039+62.9597+116.776C62.7078+117.374+62.6152+118.026+62.6909+118.67C62.6909+119.566+62.8317+120.257+62.9853+120.283C66.5283+120.946+70.1783+120.758+73.6341+119.733Z" opacity="1" fill="#000000"/>
</g>
</svg>
