<?xml version="1.0" encoding="UTF-8"?>
<svg width="200" height="200" xmlns="http://www.w3.org/2000/svg" xmlns:xlink="http://www.w3.org/1999/xlink">
<path d="M 84.80 17.50 C 75.26 17.50 67.44 25.32 67.44 34.87 L 67.44 94.64 C 64.75 88.83 59.92 82.55 53.87 81.00 C 45.63 78.77 35.54 85.36 33.24 93.01 C 32.07 97.28 32.84 102.13 35.14 108.07 C 46.42 135.20 60.31 161.23 77.20 181.00 C 78.01 181.93 79.23 182.49 80.46 182.50 L 139.08 182.50 C 140.00 182.50 140.92 182.17 141.65 181.61 C 147.90 176.99 152.94 169.10 157.12 159.70 C 161.30 150.30 164.50 139.40 166.15 128.77 C 167.79 118.13 167.78 108.17 165.47 99.32 C 163.23 90.79 157.21 83.68 148.23 82.63 C 146.12 82.63 143.88 82.81 141.99 83.24 C 140.88 80.58 139.32 78.31 137.38 76.93 C 134.13 74.63 130.83 73.90 128.15 73.95 C 125.58 73.99 123.24 74.93 121.17 76.39 C 120.23 74.97 119.27 73.48 118.05 72.59 C 114.83 70.25 111.40 69.61 108.68 69.61 C 106.43 69.61 104.26 70.23 102.17 71.10 L 102.17 34.87 C 101.99 23.25 92.82 17.48 84.80 17.50 M 84.80 26.19 C 89.69 26.19 93.49 29.98 93.49 34.87 L 93.49 80.46 C 93.46 82.43 94.94 84.32 96.86 84.76 C 98.78 85.20 100.93 84.14 101.76 82.36 C 102.72 80.37 106.34 78.29 108.68 78.29 C 109.74 78.29 111.69 78.73 112.96 79.65 C 114.22 80.57 115.20 81.64 115.20 84.80 C 115.20 86.73 116.65 88.57 118.53 89.02 C 120.40 89.47 122.53 88.49 123.40 86.77 C 125.17 83.24 126.12 82.67 128.29 82.63 C 128.89 82.63 131.00 83.02 132.36 83.99 C 133.72 84.96 134.73 86.07 134.73 89.15 C 134.72 90.84 135.79 92.49 137.34 93.16 C 138.89 93.84 140.83 93.50 142.06 92.33 C 143.71 91.52 145.32 91.28 147.42 91.32 C 152.60 91.97 155.28 95.22 157.12 101.70 C 158.98 108.23 159.05 117.58 157.53 127.41 C 156.01 137.24 153.02 147.56 149.18 156.17 C 145.59 164.25 141.19 170.55 137.31 173.81 L 82.56 173.81 C 67.32 155.83 52.77 128.23 43.28 104.95 C 41.31 99.87 41.13 96.95 41.59 95.32 C 43.20 91.12 47.70 88.75 51.56 89.35 C 56.18 91.09 57.32 94.17 59.29 97.69 L 67.91 114.99 C 68.79 116.71 70.91 117.69 72.79 117.24 C 74.67 116.79 76.12 114.96 76.12 113.03 L 76.12 34.87 C 76.12 29.98 79.92 26.19 84.80 26.19" transform="rotate(180.00,100.00,100.00)" stroke="none" fill="black"  />


</svg>