<?xml version="1.0" standalone="yes"?><svg xmlns="http://www.w3.org/2000/svg" xmlns:xlink="http://www.w3.org/1999/xlink" version="1.1" x="0px" y="0px" viewBox="0 0 100 125" enable-background="new 0 0 100 100" xml:space="preserve" style="zoom: 1;"><path d="M53.541,61.333c-3.066-1.807-6.881-2.848-10.113-3.365c3.145-3.266,4.674-7.92,5.156-11.367 c0.904-0.082,1.637-0.381,2.223-0.912c0.918-0.83,1.361-2.125,1.361-3.955c0-1.1-0.342-1.846-0.736-2.354 c0.313-7.154-1.451-12.988-5.127-16.891c-1.744-1.846-3.857-3.178-6.246-4.004c-0.186-2.5-2.748-4.496-5.908-4.496 c-3.154,0-5.723,1.996-5.908,4.496c-2.383,0.826-4.502,2.158-6.244,4.004c-3.678,3.896-5.436,9.736-5.123,16.885 c-0.4,0.514-0.742,1.256-0.742,2.359c0,1.83,0.449,3.125,1.363,3.955c0.586,0.531,1.318,0.83,2.221,0.912 c0.484,3.438,2.008,8.086,5.143,11.354c-3.223,0.521-7.037,1.582-10.094,3.379c-6.117,3.594-9.658,9.609-9.658,29.727 c0,0.688,0.563,1.25,1.25,1.25h55.586c0.689,0,1.25-0.563,1.25-1.25C63.193,70.942,59.654,64.927,53.541,61.333z M39.619,60.708 l1.689,0.986c-4.404,2.113-9.902,2.113-14.311,0l1.684-0.986c1.578,0.732,3.379,1.182,5.469,1.182 C36.246,61.89,38.047,61.44,39.619,60.708z M24.449,63.188c2.875,1.738,6.225,2.666,9.701,2.666c3.482,0,6.832-0.928,9.707-2.666 l4.766,2.787c-0.082,0.752-0.391,2.031-1.518,2.832c-1.514,1.074-4.902,1.65-12.451-1.674c-0.318-0.143-0.689-0.143-1.006,0 c-7.525,3.311-10.914,2.748-12.432,1.684c-1.152-0.805-1.461-2.084-1.539-2.842L24.449,63.188z M34.15,16.489 c1.328,0,2.5,0.531,3.072,1.279c-0.992-0.156-2.012-0.254-3.072-0.254c-1.055,0-2.074,0.098-3.066,0.254 C31.656,17.021,32.822,16.489,34.15,16.489z M23.818,24.208c2.588-2.744,6.162-4.193,10.332-4.193c4.176,0,7.744,1.449,10.338,4.193 c3.002,3.18,4.525,7.959,4.473,13.867c-0.127-0.014-0.254-0.033-0.371-0.039c-0.523-2.529-2.672-3.809-4.449-4.854 c-1.787-1.055-2.885-1.781-3.037-3.021c-0.059-0.484-0.4-0.889-0.863-1.035c-0.459-0.146-0.977-0.01-1.305,0.352 c-0.023,0.029-2.51,2.725-6.723,3.223c-0.449,0.053-0.982,0.098-1.568,0.146c-3.5,0.283-9.75,0.805-10.668,5.186 c-0.201,0-0.41,0.014-0.635,0.043C19.293,32.167,20.816,27.388,23.818,24.208z M21.637,44.38c-0.26-0.215-0.596-0.313-0.924-0.283 c-0.756,0.072-1.264-0.016-1.537-0.264c-0.357-0.318-0.543-1.045-0.543-2.1c0-0.68,0.23-0.869,0.309-0.934 c0.404-0.332,1.289-0.297,1.641-0.225c0.258,0.055,1.572-0.141,1.762-1.328c-0.068-2.963,4.166-3.555,8.506-3.91 c0.621-0.049,1.182-0.098,1.66-0.152c3.102-0.371,5.43-1.713,6.816-2.748c0.84,1.309,2.252,2.139,3.545,2.9 c2.1,1.234,3.398,2.09,3.355,3.984c0.004,0,0.01,0.004,0.014,0.004c-0.004,0.094-0.02,0.186,0,0.279 c0.143,0.678,0.791,1.113,1.48,0.971c0.287-0.063,1.215-0.121,1.641,0.225c0.072,0.059,0.307,0.25,0.307,0.934 c0,1.055-0.186,1.781-0.541,2.1c-0.273,0.248-0.781,0.336-1.539,0.264c-0.326-0.029-0.664,0.068-0.922,0.283 c-0.26,0.215-0.42,0.527-0.445,0.859c-0.014,0.141-1.264,14.15-12.07,14.15c-10.775,0-12.021-13.574-12.07-14.15 C22.057,44.907,21.895,44.595,21.637,44.38z M7.613,89.81c0.137-17.916,3.203-23.258,8.418-26.318 c2.217-1.305,5.049-2.232,7.719-2.793l-5.971,3.49c-0.352,0.211-0.582,0.576-0.611,0.982c-0.014,0.15-0.254,3.656,2.584,5.674 c2.895,2.055,7.738,1.65,14.398-1.207c3.883,1.66,7.145,2.496,9.762,2.496c1.879,0,3.432-0.43,4.639-1.289 c2.842-2.018,2.598-5.523,2.588-5.674c-0.035-0.406-0.264-0.771-0.615-0.982l-5.973-3.496c2.676,0.566,5.508,1.494,7.721,2.799 c5.215,3.061,8.281,8.402,8.418,26.318H7.613z"></path><path d="M89.107,7.69H44.854c-2.324,0-4.418,1.387-5.322,3.529c-0.273,0.635,0.025,1.367,0.66,1.637 c0.639,0.268,1.371-0.025,1.641-0.664c0.518-1.217,1.703-2.002,3.021-2.002h44.254c1.811,0,3.285,1.469,3.285,3.281v29.037 c0,2.959-3.881,3.281-5.551,3.281H67.295c-0.17,0-0.342,0.035-0.502,0.104l-8.521,3.754l0.723-2.221 c0.127-0.381,0.059-0.797-0.176-1.123c-0.234-0.322-0.609-0.514-1.01-0.514h-3.404c-0.688,0-1.25,0.557-1.25,1.25 c0,0.689,0.563,1.25,1.25,1.25h1.68l-1.055,3.242c-0.15,0.469-0.014,0.982,0.348,1.314c0.238,0.209,0.537,0.322,0.84,0.322 c0.17,0,0.342-0.035,0.502-0.107l10.84-4.771h19.283c5.938,0,8.051-2.988,8.051-5.781V13.472C94.893,10.282,92.295,7.69,89.107,7.69 z"></path><path d="M86.455,13.989H47.506c-0.689,0-1.25,0.561-1.25,1.25c0,0.693,0.561,1.25,1.25,1.25h38.949c0.693,0,1.25-0.557,1.25-1.25 C87.705,14.55,87.148,13.989,86.455,13.989z"></path><path d="M86.455,22.489H52.867c-0.689,0-1.25,0.563-1.25,1.25c0,0.693,0.561,1.25,1.25,1.25h33.588c0.693,0,1.25-0.557,1.25-1.25 C87.705,23.052,87.148,22.489,86.455,22.489z"></path><path d="M86.455,30.985H55.137c-0.693,0-1.25,0.563-1.25,1.25c0,0.693,0.557,1.25,1.25,1.25h31.318c0.693,0,1.25-0.557,1.25-1.25 C87.705,31.548,87.148,30.985,86.455,30.985z"></path><path d="M86.455,39.487H56.461c-0.693,0-1.25,0.561-1.25,1.25c0,0.693,0.557,1.25,1.25,1.25h29.994c0.693,0,1.25-0.557,1.25-1.25 C87.705,40.048,87.148,39.487,86.455,39.487z"></path><path d="M33.521,45.087v-1.172h1.26v1.172c0,1.148,0.938,2.086,2.084,2.086h7.031c1.148,0,2.08-0.938,2.08-2.086v-4.223 c0-1.148-0.932-2.08-2.08-2.08h-7.031c-1.146,0-2.084,0.932-2.084,2.08v1.176h-1.26v-1.176c0-1.148-0.938-2.08-2.086-2.08h-7.031 c-1.146,0-2.08,0.932-2.08,2.08v4.223c0,1.148,0.934,2.086,2.08,2.086h7.031C32.584,47.173,33.521,46.235,33.521,45.087z M37.281,41.284h6.195v3.389h-6.195V41.284z M31.021,44.673h-6.197v-3.389h6.197V44.673z"></path></svg>