<?xml version="1.0" standalone="yes"?><svg xmlns="http://www.w3.org/2000/svg" viewBox="0 0 100 125" x="0px" y="0px" style="zoom: 1;"><g data-name="Layer 6"><path d="M68.19,74.62a10.63,10.63,0,0,1-6.06-1.82c-5-3.34-4.81-10.57-4.67-15.84a23.43,23.43,0,0,0-.09-4.23c-.18-.84-.38-1.66-.57-2.44-.77-3.11-1.43-5.8.72-6.45,4-1.21,6.71,5.1,7.81,8.42a77.84,77.84,0,0,0,3.15-7.34C69.74,41.73,73,34.46,76,35.63c2.58,1,.63,6.78-.33,9.21-.74,1.88-1.18,3.16-1.44,4C77,45.69,83.56,38.44,86.34,38.39a1.6,1.6,0,0,1,1.3.53c2.15,2.35.41,4.44-4.22,10l-2.28,2.77c-.93,1.13-1.53,1.95-1.93,2.53l.2-.12,3.08-2.38c5.47-4.25,8-6.2,9.77-5.86a2,2,0,0,1,1.36.95c1.66,2.71-.65,4.93-7.18,10.11A26.22,26.22,0,0,0,83,60.13c.18-.11.39-.24.61-.4,2.64-1.83,7.38-4.3,9.59-3.6a1.88,1.88,0,0,1,1.21,1.12c.81,2.26-.44,3.18-7.4,8.31l-1.64,1.21C79.85,70.83,73.77,74.62,68.19,74.62ZM58.49,45.7a1.32,1.32,0,0,0-.39.06c-.26.41.28,2.6.64,4.05.2.8.41,1.65.59,2.52A23.89,23.89,0,0,1,59.46,57c-.13,4.81-.31,11.4,3.78,14.13,5.94,4,13.9-.8,20.91-6L85.79,64c5.47-4,6.9-5.12,6.73-5.93-.85-.26-4.43,1-7.8,3.36-2.76,1.92-3.86,1.28-4.26.73s-1.39-1.87,4.73-6.73c6.56-5.21,7.35-6.48,6.73-7.5-.86-.29-4.42,2.5-8.21,5.44l-3.09,2.39h0l-.12.09c-1.9,1.2-3,1.4-3.7.64-.84-.94-.16-2.4,2.79-6l2.29-2.77c4.27-5.16,5.12-6.32,4.39-7.27-1.52.22-6.92,5.51-11.17,10.49-.67.8-1.67,1.65-2.61,1.09s-1.07-1.93,1.28-7.87c1.59-4,1.56-6,1.41-6.54-.64.35-2.5,2.2-4.85,8.09-3.21,8.1-3.53,8.68-5,8.86a1.64,1.64,0,0,1-1.78-1.13C62.35,49.45,60.34,45.7,58.49,45.7Zm20.94,8.41Z"></path><path d="M31.58,73.48a22.2,22.2,0,1,1,22.2-22.2A22.22,22.22,0,0,1,31.58,73.48Zm0-42.39a20.2,20.2,0,1,0,20.2,20.19A20.22,20.22,0,0,0,31.58,31.09Z"></path><ellipse cx="24.63" cy="44.81" rx="2.17" ry="5.16"></ellipse><ellipse cx="38.17" cy="44.81" rx="2.17" ry="5.16"></ellipse><path d="M31.58,63.37h-.7C23,63,17.7,57,17.48,56.77A1,1,0,0,1,19,55.46c.05.06,5,5.6,12,5.9,4.52.19,9-1.82,13.25-6a1,1,0,1,1,1.4,1.44C41.17,61.17,36.44,63.37,31.58,63.37Z"></path></g></svg>