<?xml version="1.0" standalone="yes"?><svg xmlns="http://www.w3.org/2000/svg" data-name="Layer 1" viewBox="0 0 512 640" x="0px" y="0px" style="zoom: 1;"><title>N_A_007Artboard 1 copy</title><path d="M434.71,320.42,421.29,307l-43.22-43.23L366.62,156.53a86.93,86.93,0,0,0-24.25-49.41L286.22,50.36a49.75,49.75,0,0,0-30-14.44l-89.5-9.68a6,6,0,0,0-6.66,6v9.07a48.08,48.08,0,0,0,1.29,10.86L123.46,38h0L78.38,21.17a6,6,0,0,0-7.73,7.74l33.52,89.83,0,.09.13.23a5.73,5.73,0,0,0,1.07,1.61c.06.07.08.15.14.22l17.17,17.17-12.85,15.51a26.4,26.4,0,0,0,20.33,43.28,25.67,25.67,0,0,0,3.16-.21,26.45,26.45,0,0,0,46.23,20.46l8.16-9.44v123a114.6,114.6,0,0,0,32,79.78V482a6,6,0,0,0,12,0V408a6.05,6.05,0,0,0-1.76-4.25,102.68,102.68,0,0,1-30.28-73.08V190.22a28.82,28.82,0,0,1,30.73-28.75,28.89,28.89,0,0,1,26.91,28.75V270.3a6,6,0,0,0,1.76,4.25L353.66,369l-18.39,45.67a6.17,6.17,0,0,0-.43,2.29l.43,68.27a6,6,0,0,0,6,6h0a6,6,0,0,0,6-6.05l-.42-67.09,16-39.81,7,7a24,24,0,0,0,33.87,0l30.94-30.95a23.94,23.94,0,0,0,0-33.87ZM172.13,38.91l82.84,9a37.75,37.75,0,0,1,22.7,11l56.16,56.76A74.8,74.8,0,0,1,354.68,158l9.85,92.28-86.86-86.86L264,98.19a6,6,0,0,0-4.27-4.56L199.62,76.78a38.37,38.37,0,0,1-18.09-11.17,36.08,36.08,0,0,1-9.4-24.33Zm90,108.93-57-57L253,104.22Zm-150-42.07L100,73.24l22.69-22.69,32.54,12.14Zm-1.83-59.84L95.4,60.86,86.51,37ZM121,181.51a14.47,14.47,0,0,1-1.84-20.27l12.13-14.64L152,167.33l-10.85,12.55A14.49,14.49,0,0,1,121,181.51Zm49.52,27.72a14.42,14.42,0,0,1-22-18.63L160.61,176l20.74,20.73Zm60.81-59.76A40.81,40.81,0,0,0,188,186.29L118.3,116.64l47.81-47.82L267.94,170.65l.06.06L408.54,311.25l-47.82,47.81-91.29-91.29V190.22A40.94,40.94,0,0,0,231.3,149.47ZM426.21,345.79l-30.95,30.95a11.94,11.94,0,0,1-16.86,0l-9.18-9.18,23.91-23.9L417,319.75l9.17,9.17a11.91,11.91,0,0,1,0,16.87Z"></path></svg>