<svg xmlns="http://www.w3.org/2000/svg" xmlns:xlink="http://www.w3.org/1999/xlink" version="1.1" x="0px" y="0px" viewBox="0 0 100 125" enable-background="new 0 0 100 100" xml:space="preserve"><g><path fill-rule="evenodd" clip-rule="evenodd" d="M 42.3 11.6 c 10.9 0.4 18.6 5 23.3 13.5 c 2 3.6 2.7 7.5 3 11.4 c 0.5 6 -0.4 11.7 -2.8 17.3 c -3 7 -7.8 12.9 -14.6 17.6 c -5.2 3.6 -9.9 7.5 -13.8 12.2 c -3.3 4 -8.2 5.5 -13.7 4.5 c -5.8 -1 -9.4 -4.2 -10.8 -9.2 c -0.7 -2.6 -0.4 -5.1 0.9 -7.5 c 0.7 -1.3 1.9 -1.7 3.1 -1.2 c 1.2 0.5 1.6 1.6 1 2.9 c -2.2 4.7 0.5 9.7 6 11.1 c 3.8 1 7.8 -0.3 10.1 -3.1 c 3.7 -4.6 8.3 -8.5 13.4 -11.9 c 7 -4.7 12 -10.7 14.8 -18 c 2.7 -7.4 3.1 -14.8 0.3 -22.2 c -2.3 -6 -6.8 -10.4 -13.9 -12.4 c -7.1 -2 -13.7 -0.7 -19.6 3.2 c -3.1 2.1 -5.2 4.7 -6.6 7.9 c -0.6 1.3 -1.8 1.9 -3 1.5 c -1.4 -0.4 -1.9 -1.6 -1.2 -2.9 c 3.1 -6.6 8.5 -11.1 16.3 -13.4 C 36.9 11.9 39.6 11.6 42.3 11.6 z M 56.5 27.2 c -3.8 -5.4 -10.9 -8.1 -17.6 -6.8 c -7.4 1.4 -13.1 7.4 -13.4 13 c -0.3 5.2 3.2 9.5 9.2 10.6 c 0.6 0.1 1.2 0.3 1.8 0.2 c 0.6 -0.1 1 -0.4 1 -0.9 c 0 -0.5 -0.3 -0.9 -0.9 -1 c -0.4 -0.1 -0.9 -0.1 -1.3 -0.2 c -3.6 -0.7 -6.3 -2.4 -7.2 -5.7 c -0.4 -1.6 -0.4 -3.3 0 -4.9 c 1.6 -6.1 9.9 -10.6 17 -9.1 c 6.2 1.3 9.8 5 11.4 10.1 c 1.5 4.5 1.4 9.1 0 13.7 c -1.7 5.6 -4.9 10.3 -10 14.1 c -3 2.2 -5.9 4.6 -8.4 7.3 c -0.5 0.5 -0.6 1.1 0 1.5 c 0.6 0.5 1.3 0.3 1.7 -0.2 c 2.6 -3 6 -5.3 9.1 -7.8 c 7.3 -5.8 10.7 -13.1 10.8 -21.6 C 60 34.4 58.9 30.6 56.5 27.2 z M 27.6 47.8 c -3.9 1.2 -7.2 3.1 -8.7 6.6 c -1.7 3.9 -0.9 7.7 1.1 11.4 c 0.5 1 1.4 1.7 2.6 2.1 c 2.6 0.9 4.5 -0.1 6.3 -1.5 c 1.6 -1.3 2.5 -3 3.3 -4.8 c 1.4 -3.4 4 -5.7 7.8 -7.1 c 1.6 -0.6 3.2 -1 4.8 -1.5 c 6.1 -1.6 8.5 -6.5 5.6 -11.4 c -2.2 -3.6 -5.9 -5.1 -10.4 -5.3 c -2.9 -0.1 -4.9 -1.3 -5.8 -3.6 c -0.2 -0.6 -0.6 -1 -1.4 -0.9 c -0.8 0.1 -1 0.7 -0.9 1.3 c 0 0.2 0.1 0.5 0.2 0.7 c 1.4 2.8 3.9 4.2 7.3 4.4 c 3.3 0.2 6.2 0.9 8.3 3.3 c 3.2 3.6 1.4 8.2 -3.6 9.4 c -0.7 0.2 -1.4 0.4 -2.1 0.6 c -3.8 1.1 -7.4 2.6 -9.8 5.6 c -1 1.3 -1.7 2.6 -2.4 4.1 c -0.8 1.8 -1.8 3.6 -3.9 4.6 c -1.6 0.7 -2.9 0.4 -3.8 -0.9 c -0.2 -0.3 -0.4 -0.7 -0.6 -1 c -0.7 -1.4 -0.9 -2.9 -1.1 -4.4 c -0.5 -3.8 1.5 -7.1 5.5 -8.9 c 3.2 -1.4 6.6 -2 10.2 -2.2 c 0.7 0 1.4 0.1 2.1 -0.1 c 0.6 -0.1 0.8 -0.5 0.8 -1 c 0 -0.5 -0.3 -0.8 -0.9 -0.9 c -0.7 -0.1 -1.4 0 -1.9 0 C 33 46.5 30.2 47 27.6 47.8 z M 73.8 49.2 c -0.2 0.7 0.2 1.5 1.1 1.9 c 2.6 1.1 5.2 2.1 7.8 3.2 c 1.4 0.6 2.5 0.3 3 -0.7 c 0.5 -1 0 -1.9 -1.3 -2.4 c -2.5 -1 -4.9 -2 -7.4 -3 c -0.4 -0.2 -0.8 -0.3 -1.1 -0.3 C 74.8 47.8 74 48.3 73.8 49.2 z M 86 40.1 c 1.1 0 2.1 -0.9 2 -1.8 s -0.9 -1.7 -2 -1.7 c -3 0 -5.9 0 -8.9 0 c -1.3 0 -2.1 0.8 -2.1 1.8 c 0 1 0.9 1.7 2.1 1.7 c 1.5 0 2.9 0 4.4 0 C 83 40.1 84.5 40.1 86 40.1 z M 75.5 28.8 c 2.8 -1.1 5.6 -2.2 8.4 -3.4 c 1.1 -0.5 1.4 -1.5 0.9 -2.3 c -0.5 -0.8 -1.6 -1.1 -2.7 -0.7 c -0.7 0.2 -1.3 0.5 -2 0.8 c -2 0.8 -4 1.6 -6 2.5 c -1 0.4 -1.4 1.3 -1.2 2.1 c 0.2 0.7 1 1.2 2.1 1.2 C 75.1 28.9 75.3 28.9 75.5 28.8 z"/></g>
</svg>