<?xml version="1.0" standalone="yes"?><svg xmlns="http://www.w3.org/2000/svg" xmlns:xlink="http://www.w3.org/1999/xlink" x="0px" style="zoom: 1;" y="0px" xml:space="preserve" cursor="default" version="1.1" enable-background="new 0 0 33 33" viewBox="7 2 20 30"><path d="M17.524,4.386978 c-0.974,0 -1.791,0.682 -2.453,1.801 l-8.07,5.109 c0,0 -0.489,0 -3.089,0 c-2.6,0 -3.413,2.602 -3.413,5.281 c0,2.682 0.813,5.281 3.413,5.281 c2.6,0 3.089,0 3.089,0 l8.07,5.109 c0.662,1.119 1.479,1.801 2.453,1.801 c2.943,0 4.482,-6.133 4.482,-12.191 S20.466999,4.386978 17.524,4.386978 M17.524,26.929977 c-0.712,0 -1.878,-2.307 -2.388,-6.262 c1.731,-0.254 3.076,-1.977 3.076,-4.09 c0,-2.111 -1.345,-3.836 -3.076,-4.09 c0.51,-3.955 1.676,-6.262 2.388,-6.262 c0.932,0 2.642,3.93 2.642,10.352 S18.455999,26.929977 17.524,26.929977 "></path><path d="M25.587,10.811978 c-0.141,-0.141 -0.324,-0.211 -0.508,-0.211 c-0.185,0 -0.368,0.07 -0.509,0.211 c-0.281,0.281 -0.281,0.738 0,1.018 c1.269,1.271 1.968,2.955 1.968,4.748 s-0.7,3.479 -1.968,4.748 c-0.281,0.281 -0.281,0.736 0,1.018 s0.736,0.281 1.017,0 c1.542,-1.541 2.391,-3.588 2.391,-5.766 S27.129,12.352978 25.587,10.811978 "></path><path d="M29.049999,8.257978 c-0.141,-0.141 -0.324,-0.211 -0.509,-0.211 c-0.184,0 -0.368,0.07 -0.509,0.211 c-0.281,0.281 -0.281,0.736 0,1.018 c1.953,1.951 3.028,4.545 3.028,7.303 s-1.075,5.35 -3.028,7.303 c-0.281,0.281 -0.281,0.736 0,1.018 s0.737,0.281 1.018,0 c2.225,-2.223 3.45,-5.178 3.45,-8.32 S31.275,10.479979 29.049999,8.257978 "></path></svg>