<svg xmlns="http://www.w3.org/2000/svg" viewBox="0 0 100 125" x="0px" y="0px"><defs><style>.cls-1{fill:#000000;}</style></defs><title>Wild-Ass Guess</title><path class="cls-1" d="M 22.6 31.1 H 6.5 A 1.5 1.5 0 0 1 5 29.6 V 7.9 A 1.5 1.5 0 0 1 6.5 6.4 H 22.6 a 1.5 1.5 0 0 1 1.5 1.5 V 29.6 A 1.5 1.5 0 0 1 22.6 31.1 Z M 7.9 28.1 h 13.2 V 9.3 H 7.9 Z m 38.3 2.9 H 30.1 a 1.5 1.5 0 0 1 -1.5 -1.5 V 7.9 A 1.5 1.5 0 0 1 30.1 6.4 H 46.3 a 1.5 1.5 0 0 1 1.5 1.5 V 29.6 A 1.5 1.5 0 0 1 46.3 31.1 Z M 31.6 28.1 h 13.2 V 9.3 H 31.6 Z M 71.4 21.9 L 55.6 18.8 a 1.5 1.5 0 0 0 -1.1 0.2 a 1.5 1.5 0 0 0 -0.6 0.9 L 49.7 41.3 a 1.4 1.4 0 0 0 0.2 1.1 a 1.5 1.5 0 0 0 0.9 0.6 l 15.8 3.1 a 1.4 1.4 0 0 0 0.3 0 A 1.5 1.5 0 0 0 68.4 45 l 4.2 -21.4 A 1.5 1.5 0 0 0 71.4 21.9 Z M 61.9 38.4 a 2.1 2.1 0 1 1 -1.6 -2.5 A 2.1 2.1 0 0 1 61.9 38.4 Z m 5.1 -8.3 c -0.4 2 -1.5 2.5 -3.3 3.2 c -1.2 0.5 -1.5 0.8 -1.8 2 l -3.3 -0.6 l 0.2 -1 a 3.3 3.3 0 0 1 2.2 -2.5 c 1 -0.4 1.9 -0.7 2 -1.7 a 1.3 1.3 0 0 0 -1.1 -1.5 A 1.7 1.7 0 0 0 60 29.3 l -0.1 0.4 l -3.6 -0.7 c 0.7 -3.3 3.2 -4.7 6.4 -4.1 C 65.3 25.4 67.6 27.2 67 30.1 Z m 26.5 1 H 77.4 a 1.5 1.5 0 0 1 -1.5 -1.5 V 7.9 A 1.5 1.5 0 0 1 77.4 6.4 H 93.5 A 1.5 1.5 0 0 1 95 7.9 V 29.6 A 1.5 1.5 0 0 1 93.5 31.1 Z M 78.9 28.1 h 13.2 V 9.3 H 78.9 Z M 39.6 57 a 7.7 7.7 0 1 0 -7.7 -7.7 A 7.7 7.7 0 0 0 39.6 57 Z M 59.9 45.8 a 3.2 3.2 0 0 0 -4.4 0.5 l -10 12.4 H 31 c -3.9 0 -7.1 2.8 -7.4 6.2 c 0 0 0 0.1 0 0.1 L 20.9 90.2 c -0.2 1.5 1.2 2.8 3.1 3 s 3.5 -0.9 3.7 -2.4 L 29.6 72 c 0.2 0 0.5 0.1 0.7 0.1 V 93.6 l 18.5 -0.3 V 65.8 L 60.4 50.3 A 3.1 3.1 0 0 0 59.9 45.8 Z"/>
</svg>