<?xml version="1.0" encoding="UTF-8" standalone="no"?>
<!DOCTYPE svg PUBLIC "-//W3C//DTD SVG 1.1//EN" "http://www.w3.org/Graphics/SVG/1.1/DTD/svg11.dtd">
<svg version="1.1" xmlns="http://www.w3.org/2000/svg" xmlns:xlink="http://www.w3.org/1999/xlink" preserveAspectRatio="xMidYMid meet" viewBox="0 0 640 640" width="100%" height="100%"><defs><path d="M 387.1 182.8 C 387.1 153.8 387.1 137.8 387.1 134.6 C 387.1 97.5 357 67.4 320 67.4 C 283 67.4 252.8 97.5 252.8 134.6 C 252.8 137.8 252.8 153.9 252.8 182.9 C 135.7 182.9 70.6 182.9 57.6 182.9 C 50.9 182.9 45.5 188.4 45.5 195 C 45.5 229.5 45.5 505.2 45.5 539.6 C 45.5 546.3 50.9 551.8 57.6 551.8 C 110.1 551.8 529.9 551.8 582.4 551.8 C 589.1 551.8 594.5 546.3 594.5 539.6 C 594.5 505.2 594.5 229.4 594.5 194.9 C 594.5 188.2 589.1 182.8 582.4 182.8 C 556.4 182.8 491.3 182.8 387.1 182.8 Z M 277.1 134.6 C 277.1 110.9 296.4 91.7 320 91.7 C 343.6 91.7 362.9 111 362.9 134.6 C 362.9 137.7 362.9 153.5 362.9 181.9 L 277 181.9 L 277 134.6 C 277.1 134.6 277.1 134.6 277.1 134.6 Z M 69.8 527.4 L 69.8 207.1 L 570.3 207.1 L 570.3 527.4 L 69.8 527.4 Z" id="d1WbrISIXQ"></path><path d="M 278.7 499 C 285.4 499 290.9 493.5 290.9 486.8 C 290.9 484.3 290.9 464.5 290.9 462.1 C 290.9 412.6 250.7 372.4 201.3 372.4 C 151.8 372.4 111.8 412.8 111.8 462.2 C 111.8 464.6 111.8 484.4 111.8 486.8 C 111.8 493.5 117.1 499 123.9 499 C 154.9 499 263.2 499 278.7 499 Z M 201.4 396.8 C 237.4 396.8 266.6 426.1 266.6 462.2 C 266.6 463 266.6 467.2 266.6 474.7 L 136 474.7 L 136 462.2 C 155.6 418.6 177.3 396.8 201.4 396.8 Z" id="aG1tb0N61"></path><path d="M 252.1 309.5 C 252.1 281.5 229.3 258.7 201.3 258.7 C 173.2 258.7 150.4 281.5 150.4 309.5 C 150.4 337.6 173.2 360.4 201.3 360.4 C 229.3 360.4 252.1 337.6 252.1 309.5 Z M 227.8 309.5 C 227.8 324.2 215.9 336.1 201.3 336.1 C 186.6 336.1 174.7 324.2 174.7 309.5 C 174.7 294.9 186.7 282.9 201.3 282.9 C 215.9 282.9 227.8 294.9 227.8 309.5 Z" id="amwaUqF0v"></path><path d="M 516.6 328.6 C 523.3 328.6 528.7 323.1 528.7 316.5 C 528.7 309.8 523.3 304.3 516.6 304.3 C 497.8 304.3 347.8 304.3 329 304.3 C 322.3 304.3 316.8 309.8 316.8 316.5 C 316.8 323.1 322.2 328.6 329 328.6 C 366.5 328.6 497.8 328.6 516.6 328.6 Z" id="a5vwTJUX4d"></path><path d="M 464.9 387.1 C 471.5 387.1 477 381.7 477 375 C 477 368.3 471.5 362.8 464.9 362.8 C 451.3 362.8 342.6 362.8 329 362.8 C 322.3 362.8 316.8 368.3 316.8 375 C 316.8 381.7 322.2 387.1 329 387.1 C 356.2 387.1 451.3 387.1 464.9 387.1 Z" id="a3iVI2w2So"></path><path d="M 516.6 445.6 C 523.3 445.6 528.7 440.2 528.7 433.5 C 528.7 426.8 523.3 421.4 516.6 421.4 C 497.8 421.4 347.8 421.4 329 421.4 C 322.3 421.4 316.8 426.8 316.8 433.5 C 316.8 440.2 322.2 445.6 329 445.6 C 366.5 445.6 497.8 445.6 516.6 445.6 Z" id="d16egTQuCh"></path><path d="M 320.4 120.4 C 312.8 120.4 306.6 126.5 306.6 134.1 C 306.6 141.7 312.8 147.8 320.4 147.8 C 327.9 147.8 334.1 141.7 334.1 134.1 C 334.1 126.5 327.9 120.4 320.4 120.4 Z" id="i22BjHlLK4"></path></defs><g><g><g><use transform="matrix(1,0,0,1,0,0)" xlink:href="#d1WbrISIXQ" opacity="1" fill="#000000" fill-opacity="1"></use><g><use transform="matrix(1,0,0,1,0,0)" xlink:href="#d1WbrISIXQ" opacity="1" fill-opacity="0" stroke="#000000" stroke-width="1" stroke-opacity="0"></use></g></g><g><use transform="matrix(1,0,0,1,0,0)" xlink:href="#aG1tb0N61" opacity="1" fill="#000000" fill-opacity="1"></use><g><use transform="matrix(1,0,0,1,0,0)" xlink:href="#aG1tb0N61" opacity="1" fill-opacity="0" stroke="#000000" stroke-width="1" stroke-opacity="0"></use></g></g><g><use transform="matrix(1,0,0,1,0,0)" xlink:href="#amwaUqF0v" opacity="1" fill="#000000" fill-opacity="1"></use><g><use transform="matrix(1,0,0,1,0,0)" xlink:href="#amwaUqF0v" opacity="1" fill-opacity="0" stroke="#000000" stroke-width="1" stroke-opacity="0"></use></g></g><g><use transform="matrix(1,0,0,1,0,0)" xlink:href="#a5vwTJUX4d" opacity="1" fill="#000000" fill-opacity="1"></use><g><use transform="matrix(1,0,0,1,0,0)" xlink:href="#a5vwTJUX4d" opacity="1" fill-opacity="0" stroke="#000000" stroke-width="1" stroke-opacity="0"></use></g></g><g><use transform="matrix(1,0,0,1,0,0)" xlink:href="#a3iVI2w2So" opacity="1" fill="#000000" fill-opacity="1"></use><g><use transform="matrix(1,0,0,1,0,0)" xlink:href="#a3iVI2w2So" opacity="1" fill-opacity="0" stroke="#000000" stroke-width="1" stroke-opacity="0"></use></g></g><g><use transform="matrix(1,0,0,1,0,0)" xlink:href="#d16egTQuCh" opacity="1" fill="#000000" fill-opacity="1"></use><g><use transform="matrix(1,0,0,1,0,0)" xlink:href="#d16egTQuCh" opacity="1" fill-opacity="0" stroke="#000000" stroke-width="1" stroke-opacity="0"></use></g></g><g><use transform="matrix(1,0,0,1,0,0)" xlink:href="#i22BjHlLK4" opacity="1" fill="#000000" fill-opacity="1"></use><g><use transform="matrix(1,0,0,1,0,0)" xlink:href="#i22BjHlLK4" opacity="1" fill-opacity="0" stroke="#000000" stroke-width="1" stroke-opacity="0"></use></g></g></g></g>
</svg>