<svg xmlns="http://www.w3.org/2000/svg" xmlns:xlink="http://www.w3.org/1999/xlink" version="1.1" x="0px" y="0px" viewBox="0 0 100 125" enable-background="new 0 0 100 100" xml:space="preserve"><path d="M 83.3 45.2 c -0.6 -0.8 -1.5 -1.3 -2.4 -1.4 c -0.2 0 -0.4 0 -0.6 0 l 0.4 -0.6 c 4.2 -5.9 3.2 -8.5 2.6 -9.3 c 0 -0.1 -0.1 -0.1 -0.1 -0.2 c -0.5 -0.5 -1.7 -1.6 -3.3 -1.6 c 0.1 -0.3 0.2 -0.6 0.2 -0.9 c 0.1 -1.3 -0.8 -2.6 -2.5 -3.4 c -2.1 -0.9 -4.3 -0.5 -5.6 0.9 c -0.5 0.5 -0.9 1 -1.3 1.5 c -0.3 -0.5 -0.6 -1 -1.2 -1.4 c -3.1 -2.6 -5.9 0.5 -7.8 2.5 c -2.2 2.5 -4.8 7.2 -5.9 9.3 c -1.4 -1.5 -3 -2.3 -4.4 -3.1 c -2.6 -1.4 -4.7 -2.5 -5.4 -6.7 c -3.7 -20.6 -24.5 -17.6 -24.7 -17.5 c -0.9 0.1 -1.5 1 -1.4 1.9 c 0.1 0.9 1 1.5 1.9 1.4 c 0.7 -0.1 17.8 -2.6 20.9 14.8 c 1 5.8 4.3 7.5 7.2 9 c 2 1.1 3.7 2 4.7 4.2 c 0.2 0.4 -0.1 0.8 -2.3 2 c -1.6 0.9 -3.2 1.8 -3.6 3.5 c -0.4 2.3 0.3 4 0.9 5.2 c 0.1 0.3 0.3 0.7 0.4 1 c -1.1 -0.2 -2.7 -0.3 -4.1 0.7 c -1.5 1 -2.3 2.9 -2.2 5.5 c 0 1.4 0.5 2.5 1.3 3.3 c 1.3 1.2 3.2 1.5 5.6 1.4 c 0.6 0.9 1.6 3.1 1 5.3 c -0.6 2.3 -2.7 4.2 -6.3 5.7 c -3.5 1.4 -6.1 2 -8.1 2.5 c -4.5 1 -6.6 1.8 -9.4 7.9 c -0.4 0.8 0 1.8 0.8 2.2 c 0.2 0.1 0.5 0.2 0.7 0.2 c 0.6 0 1.2 -0.4 1.5 -1 c 2.3 -4.9 3.3 -5.1 7.1 -6 c 2 -0.5 4.8 -1.1 8.6 -2.6 c 8.7 -3.5 8.9 -9.2 8.3 -12.2 c -0.3 -1.4 -0.8 -2.5 -1.2 -3.2 c -0.7 -1.3 -1.3 -2 -2.3 -1.9 c -0.8 0 -3.3 0.2 -4 -0.5 c -0.1 -0.1 -0.3 -0.3 -0.3 -0.9 c 0 -1.4 0.3 -2.4 0.8 -2.7 c 0.7 -0.5 1.9 -0.1 2.3 0 c 0.6 0.2 1.2 0.1 1.7 -0.2 c 2.5 -2 1.5 -4.2 0.9 -5.5 c -0.4 -1 -0.9 -1.9 -0.6 -3.2 c 0.2 -0.3 1.3 -0.9 1.9 -1.3 c 1.9 -1.1 5.2 -2.9 3.7 -6.3 c 0 0 0 0 0 -0.1 c 0.1 -0.1 0.1 -0.2 0.2 -0.3 c 0 -0.1 3.4 -6.9 6 -9.8 c 2.9 -3.2 3.4 -2.8 4 -2.3 c 0.5 0.4 1.1 0.9 0.1 3.3 c -1.8 2.5 -5 7.2 -7.2 12.2 c -0.9 1.9 -1.9 4.5 -1.7 5.5 c 0.1 0.7 0.8 1.2 1.6 1.1 c 0.7 -0.1 1.2 -0.7 1.1 -1.4 c 0 -0.2 0.2 -1.2 1.5 -4.1 c 2.4 -5.4 6 -10.4 7.5 -12.6 c 0.5 -0.6 0.7 -0.9 0.8 -1.1 c 0.3 -0.6 1.3 -2 2.5 -3.3 c 0.6 -0.6 1.4 -0.6 1.9 -0.5 c 0.8 0.2 1.4 0.7 1.5 0.8 c -0.1 0.9 -1.8 3.3 -3.4 5.7 c -3 4.4 -7 10.3 -9.4 17 l -0.4 0.8 c -0.3 0.7 -0.1 1.5 0.6 1.8 c 0.1 0.1 0.2 0.1 0.3 0.1 c 0.1 0 0.2 0.1 0.4 0.1 c 0.6 0 1.1 -0.4 1.3 -0.9 c 0.1 -0.3 0.2 -0.5 0.3 -0.8 l 3.8 -7.7 c 0.8 -1.1 7.6 -10.7 8.1 -11.6 c 0.2 -0.3 0.4 -0.6 0.7 -0.6 c 0.4 0 1 0.3 1.4 0.7 c 0.3 0.7 -0.8 3.5 -2.7 6.1 l -4.3 6.3 c -2.6 3.8 -4.1 9 -4.2 9.3 c -0.1 0.2 -0.1 0.4 0 0.6 l 0.6 3.1 c 0.1 0.6 0.7 1.1 1.3 1.1 c 0.1 0 0.2 0 0.3 0 c 0.7 -0.1 1.2 -0.9 1.1 -1.6 l -0.5 -2.4 c 0.2 -0.4 0.6 -1.1 1.2 -2.3 c 1.3 -2.5 3.7 -7.2 5.1 -8.4 c 0.5 -0.4 1.1 -0.7 1.5 -0.7 c 0.1 0 0.3 0 0.5 0.4 c 0.4 0.5 0 3.2 -3.3 8.8 c -0.9 1.5 -1.4 3.9 -1.9 6.6 c -0.7 3.4 -1.5 7.2 -3.2 9.6 c -2 2.7 -6.4 6 -13.2 10 c -0.7 0.4 -0.9 1.2 -0.5 1.9 c 0.3 0.4 0.7 0.7 1.2 0.7 c 0.2 0 0.5 -0.1 0.7 -0.2 c 7.2 -4.2 11.8 -7.7 14.1 -10.7 c 2 -2.8 2.9 -6.9 3.7 -10.6 c 0.5 -2.4 1 -4.6 1.6 -5.7 C 85.5 48.1 83.8 45.9 83.3 45.2 z"/>
</svg>