<?xml version="1.0" standalone="yes"?><svg xmlns="http://www.w3.org/2000/svg" viewBox="0 0 96 120" x="0px" y="0px" style="zoom: 1;" visibility="visible"><g visibility="visible"><path d="M48,22.5a20,20,0,1,0,20,20A20.0236,20.0236,0,0,0,48,22.5Zm15.7979,18H59.8826a27.7274,27.7274,0,0,0-2.8618-11.1965A15.9674,15.9674,0,0,1,63.7979,40.5ZM46,27.1523V40.5H40.1111C40.5583,33.7493,43.1519,28.7969,46,27.1523ZM46,44.5V57.8477c-2.8481-1.6446-5.4417-6.597-5.8889-13.3477Zm4,13.3477V44.5h5.8889C55.4417,51.2507,52.8481,56.2031,50,57.8477ZM50,40.5V27.1523c2.8481,1.6446,5.4417,6.597,5.8889,13.3477ZM38.9792,29.3035A27.7274,27.7274,0,0,0,36.1174,40.5H32.2021A15.9674,15.9674,0,0,1,38.9792,29.3035ZM32.2021,44.5h3.9153a27.7274,27.7274,0,0,0,2.8618,11.1965A15.9674,15.9674,0,0,1,32.2021,44.5ZM57.0208,55.6965A27.7274,27.7274,0,0,0,59.8826,44.5h3.9153A15.9674,15.9674,0,0,1,57.0208,55.6965Z" visibility="visible"></path><path d="M78,10.5H18a10.0117,10.0117,0,0,0-10,10v44a10.0117,10.0117,0,0,0,10,10H36v10a2,2,0,0,0,3.0293,1.7148L58.5547,74.5H78a10.0117,10.0117,0,0,0,10-10v-44A10.0117,10.0117,0,0,0,78,10.5Zm6,54a6.0066,6.0066,0,0,1-6,6H58a1.989,1.989,0,0,0-1.0293.2852L40,80.9668V72.5a1.9988,1.9988,0,0,0-2-2H18a6.0066,6.0066,0,0,1-6-6v-44a6.0066,6.0066,0,0,1,6-6H78a6.0066,6.0066,0,0,1,6,6Z" visibility="visible"></path></g></svg>